<svg xmlns="http://www.w3.org/2000/svg" viewBox="0 0 178.14 52.43"><defs><style>.cls-1{fill:#231f20;}</style></defs><title>About</title><g id="Layer_2" data-name="Layer 2"><g id="Website"><path class="cls-1" d="M24.63,50a12.42,12.42,0,0,1-1.34-3.82,1.76,1.76,0,0,0-1.91-1.41c-.77,0-1.62.07-2.39.07-1.27.07-2.54.21-3.82.29a7.56,7.56,0,0,0-1.76.21,2.24,2.24,0,0,0-1.69,1.48c-.29.85-.64,1.69-.92,2.61a2.21,2.21,0,0,1-2.05,1.41H7.91l-5.37.21a1.39,1.39,0,0,1-1.13-.35l-.21-.21A2.82,2.82,0,0,1,.14,47.28c.64-2.19,1.27-4.3,2-6.49a41.35,41.35,0,0,0,1-4.09c.28-1.56.56-3.18,1-4.73C5,28.65,6,25.26,7,22c.7-2.47,1.41-4.87,2.12-7.34.49-1.55,1-3.11,1.41-4.73s.77-3.39,1.2-5.08a3.75,3.75,0,0,1,2-2.68A1.37,1.37,0,0,1,14.33,2c1.55,0,3-.36,4.51-.5a5,5,0,0,1,2.47.21,2.88,2.88,0,0,1,2,2.12c.35,1.48.85,2.89,1.13,4.45a57.18,57.18,0,0,0,2.12,7.83c.7,2.05,1.27,4.23,1.83,6.35.92,3.39,1.84,6.85,2.75,10.23.36,1.56.78,3.11,1.13,4.59s.57,3.11.92,4.59c.14.85.42,1.69.57,2.47.28,1.2.56,2.33.77,3.46a3.75,3.75,0,0,1-.42,2.47,1,1,0,0,1-.78.49c-.92.14-1.83.35-2.75.49h-.49c-1,.15-1.91.22-2.9.29H27A2.61,2.61,0,0,1,24.63,50ZM16.45,33.87c.49-.07,1-.07,1.48-.14a18.63,18.63,0,0,0,2-.14.82.82,0,0,0,.78-.56,1.81,1.81,0,0,0,.14-1.2,11.6,11.6,0,0,1-.35-1.2,30.56,30.56,0,0,0-1.2-4.52c-.43-1.34-.85-2.61-1.27-3.88a1.53,1.53,0,0,0-.21-.35.46.46,0,0,0-.78,0c-.07.21-.21.49-.28.77-.57,2.76-1.13,5.51-1.7,8.26a8.8,8.8,0,0,0-.21,1.91c-.07.63.35,1,1,1a2,2,0,0,0,.64,0Z"/><path class="cls-1" d="M69.09,18.91A10.3,10.3,0,0,1,68,22.16,7.76,7.76,0,0,1,67,23.43a3.21,3.21,0,0,0-.7,2.12,1.22,1.22,0,0,0,.42.84c.5.5.92,1.06,1.34,1.56a9,9,0,0,1,1.56,3.67A13.87,13.87,0,0,1,70,35c0,1.13.07,2.33,0,3.46a21.23,21.23,0,0,1-.57,4.73,10.08,10.08,0,0,1-.35,1.13c-.07.28-.21.56-.28.92a12.59,12.59,0,0,1-1.2,3,4.22,4.22,0,0,1-2.82,2.19,20,20,0,0,1-4.1.56c-.84,0-1.76.07-2.61.07-.7.07-1.41,0-2.12,0a19.87,19.87,0,0,1-2-.07A34.61,34.61,0,0,0,50.11,51C49,51,47.78,51,46.58,51a8.69,8.69,0,0,1-1.2-.21c-.28,0-.57-.14-.78-.14a5.92,5.92,0,0,1-2-.63,1.48,1.48,0,0,1-.57-.57A8,8,0,0,1,41,46.37c-.07-.57-.07-1.2-.14-1.84-.21-6-.14-12.07-.21-18.07,0-1.48-.07-2.89-.07-4.37-.14-3.46-.21-7-.28-10.45a12.56,12.56,0,0,1,.07-3.24c.21-1.41.14-2.82.35-4.24A3.47,3.47,0,0,1,41.07,3c.29-.49.5-.91.71-1.34A2.38,2.38,0,0,1,43,.49,6.65,6.65,0,0,1,45.59,0h2.82C50,0,51.52,0,53.07.07a20.09,20.09,0,0,1,2.82.28c1.35.14,2.69.36,4,.57a5.37,5.37,0,0,1,2.11.7c.92.43,1.77.85,2.69,1.34a6,6,0,0,1,1.69,1.56,12.24,12.24,0,0,1,2.26,3.67,13.13,13.13,0,0,1,.77,3.38c.07.78.14,1.56.14,2A30.33,30.33,0,0,1,69.09,18.91ZM57.38,20c.56-.07,1-.14,1.34-.7a3.49,3.49,0,0,0,.56-2.05,12,12,0,0,0-.07-1.55,6.36,6.36,0,0,0-.63-2.26,2.16,2.16,0,0,0-.92-1,8.67,8.67,0,0,0-4.45-.92.9.9,0,0,0-1.06.92,22.34,22.34,0,0,0-.21,5.29,4.09,4.09,0,0,0,.28,1.27,1.16,1.16,0,0,0,1.2.85c.92,0,1.84.07,2.76.14ZM52.79,38.88a2.08,2.08,0,0,0,.42,1,2,2,0,0,0,2.19.78,2.41,2.41,0,0,1,.71-.07,12,12,0,0,0,2.68-.64,2.12,2.12,0,0,0,1.41-1.48,5.15,5.15,0,0,0,.28-2,10.83,10.83,0,0,0-.56-4,3,3,0,0,0-1.2-1.41,7.92,7.92,0,0,0-3.11-.85,7,7,0,0,1-1.83,0,1.32,1.32,0,0,0-1.41,1.2,9.31,9.31,0,0,0-.08,1.49c.08.91.15,1.76.22,2.47A11.21,11.21,0,0,0,52.79,38.88Z"/><path class="cls-1" d="M108.75,33.87a22.05,22.05,0,0,1-1.34,4.87c-.28.71-.56,1.42-.85,2.12a19.88,19.88,0,0,1-2.11,3.25,23.52,23.52,0,0,1-1.91,2.61A13.36,13.36,0,0,1,98.45,50a12.81,12.81,0,0,1-3.6,1.19l-1.69.22h-.5L89.49,51a18.53,18.53,0,0,1-2.62-.77,10.09,10.09,0,0,1-2.25-1.13,17.37,17.37,0,0,1-1.84-1.41,1.54,1.54,0,0,0-.35-.29,12.62,12.62,0,0,1-3.18-3.52,19.68,19.68,0,0,1-3-8.61,29.81,29.81,0,0,1-.14-6.14c.07-1.06,0-2.19.07-3.25a32.06,32.06,0,0,1,.49-5.22c.14-.85.21-1.77.28-2.61a39.63,39.63,0,0,1,1.06-5.51c.92-2.54,2-5.08,4-7A18.43,18.43,0,0,1,86.59,2,14.56,14.56,0,0,1,90.83.42,21.43,21.43,0,0,1,95.06.21a12.24,12.24,0,0,1,3.18.57,24.76,24.76,0,0,1,4.09,2,7.63,7.63,0,0,1,2.4,2.33,16.35,16.35,0,0,1,2.4,4.66c.63,1.9,1.2,3.74,1.76,5.65a24.05,24.05,0,0,1,1,7.69A58.19,58.19,0,0,1,108.75,33.87Zm-10-11.78a21,21,0,0,0-1.27-6.56,12.48,12.48,0,0,0-1.83-3.25,1.79,1.79,0,0,0-1.13-.71,13.55,13.55,0,0,0-1.63-.35,3.12,3.12,0,0,0-2.61.71,15.27,15.27,0,0,0-3,3.81,20.06,20.06,0,0,0-2.26,9,36.58,36.58,0,0,0,.56,8.75,12.08,12.08,0,0,0,1,3.39,6.56,6.56,0,0,0,2.12,2.47,13.09,13.09,0,0,0,2.68,1.2,3.62,3.62,0,0,0,3.18-.43,5.5,5.5,0,0,0,2.19-2.54,18.77,18.77,0,0,0,1.62-5.22,43.94,43.94,0,0,0,.49-7.41C98.87,24,98.87,23.08,98.8,22.09Z"/><path class="cls-1" d="M146.22,28.16c0,2-.07,3.88-.21,5.86a38.25,38.25,0,0,1-1.48,8.89,13.23,13.23,0,0,1-2.68,5.36c-.28.28-.64.56-.92.85s-.42.35-.56.49A7.77,7.77,0,0,1,137,51.52c-.56.14-1.2.28-1.84.49a18.5,18.5,0,0,1-3.45.42,9,9,0,0,1-3.32-.56c-.85-.35-1.83-.64-2.68-.92a13,13,0,0,1-3.6-2.12,8.53,8.53,0,0,1-1.91-2.61c-.28-.63-.56-1.34-.91-2A19,19,0,0,1,118,40.86a40,40,0,0,1-.92-4.3c-.14-.78-.21-1.63-.28-2.4s-.15-1.7-.22-2.54a48.18,48.18,0,0,1-.35-7.13c.14-4.1.21-8.19.35-12.35,0-.92.07-1.84.07-2.75a2.51,2.51,0,0,1,.15-.78c.28-1.27.56-2.54.91-3.81a3.77,3.77,0,0,1,2.05-2.68,3.69,3.69,0,0,1,4.23.56,4.06,4.06,0,0,1,.85,1.41,10.61,10.61,0,0,1,.57,3.67c.14,2.54-.15,5.08-.22,7.62v1.2c0,.78-.07,1.56-.14,2.33,0,.57-.07,1.13-.07,1.7,0,2.54-.07,5.08,0,7.62,0,2.05.07,4.16.21,6.21a13.55,13.55,0,0,0,.92,4.37,8.5,8.5,0,0,0,2.68,3.67c.21.07.43.22.64.29a4.76,4.76,0,0,0,3-.07,2.78,2.78,0,0,0,1.41-1.13,11.12,11.12,0,0,0,1.56-3.32,29.1,29.1,0,0,0,1.34-7.76c.21-4.24.28-8.4.49-12.64.14-2.47.42-4.87.64-7.34.07-1.19.14-2.39.28-3.59a8.67,8.67,0,0,1,1.76-4.52c.14-.14.29-.28.43-.28a11.08,11.08,0,0,1,2.18-.57,4.38,4.38,0,0,1,1.84.28,2.12,2.12,0,0,1,1.34,1,5.09,5.09,0,0,1,.78,2.83c-.07,1.12-.07,2.18-.07,3.31v9.67h-.08C146.29,21.81,146.29,25,146.22,28.16Z"/><path class="cls-1" d="M160,22.09c-.07-1.84-.15-3.67-.22-5.44,0-1-.07-2-.07-3a3.74,3.74,0,0,0-.56-1.55,1.79,1.79,0,0,0-1.41-.78c-1.34,0-2.68-.07-4.1-.07a2.69,2.69,0,0,1-2.18-1.76,9.22,9.22,0,0,1-.07-3.74,11.47,11.47,0,0,0,.35-1.49,3.16,3.16,0,0,1,2.54-2.39.92.92,0,0,1,.49-.08c1.56,0,3.18.08,4.8.08,3.18,0,6.35,0,9.53.07,1.83,0,3.67.14,5.5.21a1.87,1.87,0,0,1,.85.21,8.65,8.65,0,0,1,1.48.78,3,3,0,0,1,.71.91,5.11,5.11,0,0,1,.49,2.68V8a3,3,0,0,1-1,2.4,1.46,1.46,0,0,1-.84.5l-3,.42c-.63.07-1.34.07-2,.14a1.4,1.4,0,0,0-1.27.85,2.48,2.48,0,0,0-.29.78c-.07.7-.21,1.34-.28,2-.07.92-.21,1.84-.28,2.68a.91.91,0,0,1-.07.43c-.07,4.8-.14,9.67-.21,14.54-.07,4.23-.07,8.53-.14,12.77a10.18,10.18,0,0,1-1,4.3,3.07,3.07,0,0,1-2.54,1.77c-.71.07-1.41,0-2.19,0a2.15,2.15,0,0,1-1.69-1,4.85,4.85,0,0,1-1.2-2.75c-.07-1.34-.21-2.68-.21-4.1,0-4.23,0-8.53.07-12.84v-.63h.07C160.06,27.59,160.06,24.84,160,22.09Z"/></g></g></svg>