<svg xmlns="http://www.w3.org/2000/svg" viewBox="0 0 383.03 33.9"><defs><style>.cls-1{fill:#231f20;}.cls-2{fill:none;stroke:#231f20;stroke-miterlimit:10;stroke-width:4px;}</style></defs><title>BroughtToYouByHalPan</title><g id="Layer_2" data-name="Layer 2"><g id="Website"><path class="cls-1" d="M.18,12.67c0-.94-.1-1.87-.13-2.81a38.68,38.68,0,0,1,0-4c0-.38,0-.76,0-1.15a6.27,6.27,0,0,1,.07-2A5.42,5.42,0,0,1,.39,1.63,1.57,1.57,0,0,1,1.89.48h.66c.55,0,1.11,0,1.7.07h.24A16.72,16.72,0,0,1,7.13.38,20.06,20.06,0,0,1,9.18.45,5,5,0,0,1,11.26,1a3,3,0,0,1,.94.69,10.38,10.38,0,0,1,.87,1.25,8.25,8.25,0,0,1,1.08,3,8.47,8.47,0,0,1,.07,1.59,9.79,9.79,0,0,1-.07,1.43,5.39,5.39,0,0,1-.63,2,3.42,3.42,0,0,1-.66.79,1.08,1.08,0,0,0-.24.91,1.7,1.7,0,0,1,.1.14c.14.17.25.34.38.48a3.61,3.61,0,0,1,.8,1.39c.11.42.28.8.35,1.22a10.37,10.37,0,0,1,.14,2.29c0,.56-.11,1.11-.14,1.7L14,21.42a6.23,6.23,0,0,1-.24.73A7.55,7.55,0,0,1,12.72,24a3.22,3.22,0,0,1-2.36,1.25c-.31,0-.66.1-1,.14s-.7,0-1,.07c-.62,0-1.21,0-1.84,0a16.59,16.59,0,0,1-1.84-.1,11.7,11.7,0,0,0-2.71,0,1.6,1.6,0,0,1-1.11-.38A2.08,2.08,0,0,1,.15,23c0-1,0-2.08.07-3.16,0-.87,0-1.77,0-2.64C.22,15.69.22,14.2.18,12.67ZM5.26,7.88c0,.49,0,.94,0,1.42a.84.84,0,0,0,1,.84,1.08,1.08,0,0,1,.35,0L8.24,10a1.69,1.69,0,0,0,1.08-.66.73.73,0,0,0,.14-.45,5.32,5.32,0,0,0-.59-2.4,1.65,1.65,0,0,0-1.5-.9A4.38,4.38,0,0,0,6,5.66a.86.86,0,0,0-.83.93c0,.42,0,.87,0,1.29Zm.38,12.26a2.07,2.07,0,0,0,.17.45.33.33,0,0,0,.31.17A5.47,5.47,0,0,0,9.18,20a1.93,1.93,0,0,0,.9-1.42,5.15,5.15,0,0,0-.55-2.78,1.75,1.75,0,0,0-1.43-1A7.26,7.26,0,0,0,6,14.89a.46.46,0,0,0-.31.25,2.56,2.56,0,0,0-.21,1.14V17.6C5.57,18.47,5.6,19.31,5.64,20.14Z"/><path class="cls-1" d="M22.79,24a2,2,0,0,1-.66,1.49,1.7,1.7,0,0,1-1.14.49,6,6,0,0,1-1,0,2.17,2.17,0,0,1-1.6-.73,1.58,1.58,0,0,1-.42-1c0-.87,0-1.73-.07-2.6,0-1.39-.07-2.82-.1-4.2-.07-1.78-.11-3.51-.17-5.28,0-1.32-.11-2.64-.14-4,0-.91,0-1.81,0-2.71s.17-1.56.24-2.33V3a3.53,3.53,0,0,1,.84-1.39,1,1,0,0,1,.87-.31c.48,0,.93,0,1.38,0a5.44,5.44,0,0,1,.7,0c.94,0,1.84,0,2.74,0s1.95,0,2.89,0a4.08,4.08,0,0,1,1.11.17A5.33,5.33,0,0,1,31.1,3.89a6.4,6.4,0,0,1,.38.79,12.55,12.55,0,0,1,.9,4.66v1.84a10,10,0,0,1-.63,2.92,6.18,6.18,0,0,1-.86,1.7,2.61,2.61,0,0,1-.28.31,1.29,1.29,0,0,0-.28,1.7c.17.35.31.7.49,1,.2.49.41.94.62,1.42a.33.33,0,0,0,.07.18,11.33,11.33,0,0,0,.77,1.8,3.69,3.69,0,0,1,.24.87c.07.35.1.7.14,1.08a1.37,1.37,0,0,1-.56,1.14,1.1,1.1,0,0,1-.9.25l-.56,0a7.85,7.85,0,0,1-1,0,4.21,4.21,0,0,1-1.46-.42,2.07,2.07,0,0,1-.8-.83,10.14,10.14,0,0,0-.41-1c-.21-.38-.45-.73-.7-1.11a13.26,13.26,0,0,1-.87-1.63,3.62,3.62,0,0,1-.17-.35,5.24,5.24,0,0,1-.31-.76.82.82,0,0,0-.94-.66,4.85,4.85,0,0,1-.66,0,.41.41,0,0,0-.42.31,3.34,3.34,0,0,0-.17,1c0,.62,0,1.25,0,1.87Zm0-13.68c0,.79,0,1.59-.07,2.43v.62a.84.84,0,0,0,.9.91h.7a.51.51,0,0,0,.24,0,7.94,7.94,0,0,0,1.18-.42,2.48,2.48,0,0,0,.83-.62,3,3,0,0,0,.66-1.36,12.86,12.86,0,0,0,.07-2.32,6,6,0,0,0-.07-.84,4.62,4.62,0,0,0-.31-1,4.55,4.55,0,0,0-.55-.94,2,2,0,0,0-1.57-.73h-.66a1.5,1.5,0,0,0-.93.39,1.3,1.3,0,0,0-.46,1v3Z"/><path class="cls-1" d="M51,16.87a11.19,11.19,0,0,1-.66,2.4l-.42,1a9.33,9.33,0,0,1-1,1.6,11.45,11.45,0,0,1-.94,1.29,6.59,6.59,0,0,1-2,1.63,6.36,6.36,0,0,1-1.77.59l-.83.1H43l-1.56-.21a7.49,7.49,0,0,1-1.28-.38,4.85,4.85,0,0,1-1.12-.55,9.15,9.15,0,0,1-.9-.7.9.9,0,0,0-.17-.14,6.34,6.34,0,0,1-1.57-1.73A9.66,9.66,0,0,1,35,17.57a14.41,14.41,0,0,1-.07-3c0-.52,0-1.08,0-1.6a16.7,16.7,0,0,1,.24-2.57c.07-.42.11-.87.14-1.29a19.76,19.76,0,0,1,.52-2.7,8.55,8.55,0,0,1,2-3.44,9.21,9.21,0,0,1,2.23-1.77A7.12,7.12,0,0,1,42.14.41a10.36,10.36,0,0,1,2.08-.1,5.77,5.77,0,0,1,1.57.28,12.14,12.14,0,0,1,2,1A3.7,3.7,0,0,1,49,2.74,8,8,0,0,1,50.16,5c.31.94.59,1.84.87,2.78a12,12,0,0,1,.49,3.79A29,29,0,0,1,51,16.87Zm-4.9-5.8a10.16,10.16,0,0,0-.62-3.23,6.13,6.13,0,0,0-.9-1.59A.84.84,0,0,0,44,5.9a5.71,5.71,0,0,0-.8-.17,1.53,1.53,0,0,0-1.28.34A7.55,7.55,0,0,0,40.44,8a9.8,9.8,0,0,0-1.11,4.41,18.28,18.28,0,0,0,.27,4.31,5.85,5.85,0,0,0,.49,1.66,3.15,3.15,0,0,0,1,1.22,6.75,6.75,0,0,0,1.32.59A1.78,1.78,0,0,0,44,19.93a2.73,2.73,0,0,0,1.07-1.25,9.38,9.38,0,0,0,.8-2.57,21.32,21.32,0,0,0,.24-3.65C46.1,12,46.1,11.56,46.06,11.07Z"/><path class="cls-1" d="M69.4,14.06c0,1,0,1.91-.1,2.88a18.75,18.75,0,0,1-.73,4.38A6.58,6.58,0,0,1,67.25,24l-.45.42-.28.24a3.75,3.75,0,0,1-1.67.94c-.27.07-.59.14-.9.24a9.41,9.41,0,0,1-1.7.21,4.31,4.31,0,0,1-1.63-.28c-.42-.17-.91-.31-1.32-.45a6.5,6.5,0,0,1-1.77-1A4.19,4.19,0,0,1,56.59,23c-.14-.31-.28-.66-.45-1a9.88,9.88,0,0,1-.63-1.67c-.17-.69-.34-1.39-.45-2.12-.07-.38-.1-.79-.14-1.18s-.07-.83-.1-1.25a23.86,23.86,0,0,1-.18-3.5c.07-2,.11-4,.18-6.08,0-.45,0-.9,0-1.36a1.43,1.43,0,0,1,.07-.38c.14-.62.28-1.25.45-1.87a1.87,1.87,0,0,1,1-1.32,1.81,1.81,0,0,1,2.08.27,2,2,0,0,1,.42.7A5.11,5.11,0,0,1,59.16,4c.07,1.26-.07,2.51-.11,3.76v.59A10.9,10.9,0,0,1,59,9.51c0,.28,0,.56,0,.84,0,1.25,0,2.5,0,3.75,0,1,0,2,.1,3a6.79,6.79,0,0,0,.46,2.16,4.08,4.08,0,0,0,1.32,1.8,2.92,2.92,0,0,0,.31.14,2.35,2.35,0,0,0,1.46,0,1.39,1.39,0,0,0,.69-.56A5.55,5.55,0,0,0,64.06,19a14.5,14.5,0,0,0,.66-3.82c.1-2.09.13-4.14.24-6.22.07-1.21.21-2.4.31-3.61,0-.59.07-1.18.14-1.77a4.23,4.23,0,0,1,.87-2.22c.07-.07.14-.14.21-.14A4.67,4.67,0,0,1,67.56,1a2,2,0,0,1,.91.14,1,1,0,0,1,.66.48A2.56,2.56,0,0,1,69.51,3c0,.56,0,1.08,0,1.63V9.37h0C69.44,10.94,69.44,12.5,69.4,14.06Z"/><path class="cls-1" d="M86.6,12.53a4,4,0,0,1,.9,0,1.05,1.05,0,0,1,.62.41,3.22,3.22,0,0,1,.53,1.64c0,1.21.07,2.39.1,3.61,0,.9-.07,1.8-.1,2.71a3.24,3.24,0,0,1-.07.52v1c0,.59,0,1.18,0,1.77a2,2,0,0,1-.62,1.32.64.64,0,0,1-.49.21,8.56,8.56,0,0,1-1.6,0c-.41-.07-.8-.1-1.21-.17s-.56-.31-.77-.55c-.07,0,0-.18,0-.25a.36.36,0,0,0-.56-.28s0,0,0,0a5.21,5.21,0,0,1-1.84.8l-.32.1a4.83,4.83,0,0,1-2.64.14,3.21,3.21,0,0,0-.62-.1,4.94,4.94,0,0,1-2.15-1.22c-.21-.21-.42-.38-.66-.59a5.76,5.76,0,0,1-1.77-2.92,15.92,15.92,0,0,1-.56-2.91,14.8,14.8,0,0,1-.14-2.12c0-1,0-2.12.07-3.16,0-.52.07-1,.07-1.57a11.64,11.64,0,0,1,.24-2.18A18.48,18.48,0,0,1,74.3,4.61a5.91,5.91,0,0,1,1.63-2.15c.39-.31.84-.55,1.25-.83.25-.14.46-.28.73-.42a11.32,11.32,0,0,1,2-.8,3.15,3.15,0,0,1,.39-.14A5.36,5.36,0,0,1,82.67,0a9.7,9.7,0,0,1,2.26.49.86.86,0,0,1,.28.1c.38.18.76.35,1.11.56a9,9,0,0,1,.69.59c.14.14.25.31.38.45a2.71,2.71,0,0,1,.56,1,5.26,5.26,0,0,1,.45,2.29c0,.21,0,.45,0,.66a3.48,3.48,0,0,1-.32,1.57,1.27,1.27,0,0,1-1.18.9,5,5,0,0,1-1.73-.24,1.14,1.14,0,0,1-.73-.56,3.24,3.24,0,0,0-.21-.38A2.17,2.17,0,0,1,84,6.66a3.41,3.41,0,0,0-.24-.86.73.73,0,0,0-.7-.42,8.78,8.78,0,0,0-1.7,0,2.82,2.82,0,0,0-1.56.73A6.71,6.71,0,0,0,78.09,9a11.56,11.56,0,0,0-.45,2.68,13.37,13.37,0,0,1-.18,1.66,6.49,6.49,0,0,0,0,1.08v.17c0,.56,0,1.15,0,1.7a1.94,1.94,0,0,0,.07.63c.14.62.28,1.21.45,1.84a3.36,3.36,0,0,0,.73,1.35,1.16,1.16,0,0,0,.59.39,6.34,6.34,0,0,0,1.77.24,3.22,3.22,0,0,0,1.11-.21,1.22,1.22,0,0,0,.17-.07,1.67,1.67,0,0,0,1.15-.76.41.41,0,0,0,.1-.18,3.45,3.45,0,0,0,.18-1.45.65.65,0,0,0-.63-.63,3.93,3.93,0,0,1-.87-.17,1.76,1.76,0,0,1-1-1.08,3.19,3.19,0,0,1,0-1.81,2.45,2.45,0,0,1,.59-1.11,2.29,2.29,0,0,1,1-.59,9.87,9.87,0,0,1,1.43,0C85.14,12.6,85.87,12.53,86.6,12.53Z"/><path class="cls-1" d="M106.77,18.19c0,2,.08,4.07.11,6.08a2,2,0,0,1-.28,1,.43.43,0,0,1-.45.28,14.53,14.53,0,0,1-3-.07.88.88,0,0,1-.77-.69,3.89,3.89,0,0,1-.2-1.08c-.11-1.87-.14-3.78-.18-5.66,0-.69,0-1.42,0-2.12a2,2,0,0,0-.25-1.11.81.81,0,0,0-.79-.52c-.87,0-1.71,0-2.57.07a7.66,7.66,0,0,0-1.25.24c-.11,0-.21.11-.28.18a1.38,1.38,0,0,0-.38,1c0,.66,0,1.35,0,2,0,1.43,0,2.85,0,4.27,0,.7,0,1.39-.07,2A3.92,3.92,0,0,1,96,25.31a.63.63,0,0,1-.49.39c-.66,0-1.32.13-2,.13a1.86,1.86,0,0,1-1.28-.41,1.26,1.26,0,0,1-.49-1c0-1.46.11-2.92.11-4.41s0-3,0-4.55c0-1.08-.07-2.19-.07-3.26,0-1.88,0-3.79,0-5.7,0-1.11,0-2.22.07-3.33a4.67,4.67,0,0,1,.34-1.64,1.14,1.14,0,0,1,.84-.69A6.19,6.19,0,0,1,94.41.69h.14a2.42,2.42,0,0,0,1,.11,1.73,1.73,0,0,1,.76.27.6.6,0,0,1,.28.52c0,1.43,0,2.85,0,4.28,0,1-.1,1.94-.1,2.88a.85.85,0,0,0,.79.87,18,18,0,0,0,2.75,0,6.34,6.34,0,0,0,1.14-.14.73.73,0,0,0,.7-.73v-6c0-.42.07-.83.1-1.25a1,1,0,0,1,.77-.87,7.16,7.16,0,0,1,1.94-.24,1.7,1.7,0,0,1,1.53.94,1.71,1.71,0,0,1,.21.83c0,1.11,0,2.19.07,3.26,0,1.95.1,3.89.14,5.87,0,.59,0,1.22.07,1.84h0C106.71,14.86,106.74,16.53,106.77,18.19Z"/><path class="cls-1" d="M113.55,11.07c0-.9-.07-1.8-.11-2.67,0-.49,0-1,0-1.46a1.87,1.87,0,0,0-.28-.76.84.84,0,0,0-.69-.38c-.66,0-1.32,0-2,0a1.3,1.3,0,0,1-1.07-.87,4.73,4.73,0,0,1,0-1.84,4.55,4.55,0,0,0,.17-.73,1.58,1.58,0,0,1,1.25-1.18.61.61,0,0,1,.25,0c.76,0,1.56,0,2.36,0,1.56,0,3.13,0,4.69,0,.9,0,1.8.07,2.71.1a.87.87,0,0,1,.41.11,4.19,4.19,0,0,1,.73.38,1.46,1.46,0,0,1,.35.45,2.43,2.43,0,0,1,.24,1.32v.62A1.45,1.45,0,0,1,122,5.34a.8.8,0,0,1-.42.25l-1.49.21c-.32,0-.66,0-1,.07a.68.68,0,0,0-.62.41,1.57,1.57,0,0,0-.14.38c0,.35-.1.66-.14,1s-.1.9-.14,1.32a.51.51,0,0,1,0,.21c0,2.36-.07,4.76-.11,7.15,0,2.09,0,4.21-.07,6.29a5,5,0,0,1-.48,2.12,1.53,1.53,0,0,1-1.25.87c-.35,0-.7,0-1.08,0a1,1,0,0,1-.83-.49,2.37,2.37,0,0,1-.59-1.35c0-.66-.11-1.32-.11-2,0-2.08,0-4.2,0-6.32v-.31h0C113.58,13.78,113.58,12.43,113.55,11.07Z"/><path class="cls-1" d="M135.36,11.07c0-.9-.07-1.8-.1-2.67,0-.49,0-1,0-1.46a1.74,1.74,0,0,0-.28-.76.84.84,0,0,0-.69-.38c-.66,0-1.32,0-2,0a1.31,1.31,0,0,1-1.07-.87,4.73,4.73,0,0,1,0-1.84,6,6,0,0,0,.18-.73,1.55,1.55,0,0,1,1.25-1.18.56.56,0,0,1,.24,0c.76,0,1.56,0,2.36,0,1.56,0,3.13,0,4.69,0,.9,0,1.8.07,2.71.1a.94.94,0,0,1,.42.11,4.1,4.1,0,0,1,.72.38,1.46,1.46,0,0,1,.35.45,2.43,2.43,0,0,1,.24,1.32v.62a1.45,1.45,0,0,1-.48,1.18.8.8,0,0,1-.42.25l-1.49.21c-.31,0-.66,0-1,.07a.69.69,0,0,0-.63.41,1.57,1.57,0,0,0-.14.38c0,.35-.1.66-.14,1s-.1.9-.14,1.32a.51.51,0,0,1,0,.21c0,2.36-.07,4.76-.11,7.15,0,2.09,0,4.21-.06,6.29a5,5,0,0,1-.49,2.12,1.52,1.52,0,0,1-1.25.87c-.35,0-.7,0-1.08,0a1.07,1.07,0,0,1-.83-.49,2.37,2.37,0,0,1-.59-1.35c0-.66-.11-1.32-.11-2,0-2.08,0-4.2,0-6.32v-.31h0C135.39,13.78,135.39,12.43,135.36,11.07Z"/><path class="cls-1" d="M161.44,16.87a10.64,10.64,0,0,1-.66,2.4c-.14.35-.27.7-.41,1a9.39,9.39,0,0,1-1.05,1.6,11.36,11.36,0,0,1-.93,1.29,6.63,6.63,0,0,1-2,1.63,6.25,6.25,0,0,1-1.77.59l-.83.1h-.25L152,25.31a7.76,7.76,0,0,1-1.28-.38,4.6,4.6,0,0,1-1.11-.55,8.2,8.2,0,0,1-.91-.7.9.9,0,0,0-.17-.14,6.15,6.15,0,0,1-1.56-1.73,9.68,9.68,0,0,1-1.46-4.24,14.41,14.41,0,0,1-.07-3c0-.52,0-1.08,0-1.6a15.54,15.54,0,0,1,.25-2.57c.07-.42.1-.87.13-1.29a18.39,18.39,0,0,1,.53-2.7,8.42,8.42,0,0,1,2-3.44,9.21,9.21,0,0,1,2.23-1.77,7.12,7.12,0,0,1,2.08-.77,10.46,10.46,0,0,1,2.09-.1,5.7,5.7,0,0,1,1.56.28,12.14,12.14,0,0,1,2,1,3.7,3.7,0,0,1,1.18,1.15A7.78,7.78,0,0,1,160.64,5c.32.94.59,1.84.87,2.78A12,12,0,0,1,162,11.6,29,29,0,0,1,161.44,16.87Zm-4.89-5.8a10.46,10.46,0,0,0-.63-3.23,6.13,6.13,0,0,0-.9-1.59.82.82,0,0,0-.56-.35,5.71,5.71,0,0,0-.8-.17,1.53,1.53,0,0,0-1.28.34A7.55,7.55,0,0,0,150.92,8a9.93,9.93,0,0,0-1.11,4.41,17.77,17.77,0,0,0,.28,4.31,5.53,5.53,0,0,0,.48,1.66,3.24,3.24,0,0,0,1,1.22,6.75,6.75,0,0,0,1.32.59,1.78,1.78,0,0,0,1.57-.21,2.73,2.73,0,0,0,1.07-1.25,9,9,0,0,0,.8-2.57,21.33,21.33,0,0,0,.25-3.65C156.58,12,156.58,11.56,156.55,11.07Z"/><path class="cls-1" d="M174.68.93a2.63,2.63,0,0,1,1.14.66,1.75,1.75,0,0,1,.25.32,8.66,8.66,0,0,1,.45,1c.34.73.62,1.46,1,2.15A5,5,0,0,0,178,6c.07.14.17.28.38.25a.35.35,0,0,0,.38-.21c.28-.45.53-.9.77-1.36.45-.86.9-1.7,1.39-2.57,0-.1.14-.17.24-.27a3.29,3.29,0,0,1,.87-.52.87.87,0,0,1,.31-.07,10,10,0,0,1,2.22.2,1.21,1.21,0,0,1,.73.8,1.78,1.78,0,0,1,0,.94c-.21.66-.49,1.29-.77,1.95s-.62,1.39-.86,2.08c-.32.9-.77,1.74-1.15,2.57-.28.66-.59,1.32-.83,2a9,9,0,0,0-.59,3c0,1.25-.07,2.46-.07,3.68,0,.66,0,1.28,0,1.94v3a2.66,2.66,0,0,1-.42,1.25,1.66,1.66,0,0,1-1.35.73,5.15,5.15,0,0,1-2-.31,1.21,1.21,0,0,1-.69-.84,4,4,0,0,1-.11-.9c0-1.7-.1-3.37-.1-5s.07-3.23.07-4.82a7.21,7.21,0,0,0-.49-2.54,2.69,2.69,0,0,0-.35-.56c-.59-.93-1.14-1.94-1.66-2.91-.38-.8-.8-1.53-1.22-2.29l-.52-1a2.36,2.36,0,0,0-.35-.48,2.23,2.23,0,0,1-.41-1.6A1.43,1.43,0,0,1,172.31.9a2.36,2.36,0,0,1,1.12-.17C173.84.8,174.26.83,174.68.93Z"/><path class="cls-1" d="M203.05,16.87a11.19,11.19,0,0,1-.66,2.4l-.42,1a9.33,9.33,0,0,1-1,1.6A11.45,11.45,0,0,1,200,23.2a6.59,6.59,0,0,1-2,1.63,6.36,6.36,0,0,1-1.77.59l-.83.1h-.25l-1.56-.21a7.49,7.49,0,0,1-1.28-.38,4.85,4.85,0,0,1-1.12-.55,9.15,9.15,0,0,1-.9-.7.9.9,0,0,0-.17-.14,6.34,6.34,0,0,1-1.57-1.73,9.66,9.66,0,0,1-1.45-4.24,14.41,14.41,0,0,1-.07-3c0-.52,0-1.08,0-1.6a15.54,15.54,0,0,1,.24-2.57c.07-.42.11-.87.14-1.29a19.76,19.76,0,0,1,.52-2.7,8.55,8.55,0,0,1,2-3.44,9.21,9.21,0,0,1,2.23-1.77,7.12,7.12,0,0,1,2.08-.77,10.36,10.36,0,0,1,2.08-.1,5.77,5.77,0,0,1,1.57.28,12.14,12.14,0,0,1,2,1,3.7,3.7,0,0,1,1.18,1.15A8,8,0,0,1,202.25,5c.31.94.59,1.84.87,2.78a12,12,0,0,1,.49,3.79A29,29,0,0,1,203.05,16.87Zm-4.9-5.8a10.16,10.16,0,0,0-.62-3.23,6.13,6.13,0,0,0-.9-1.59.84.84,0,0,0-.56-.35,5.71,5.71,0,0,0-.8-.17,1.53,1.53,0,0,0-1.28.34A7.55,7.55,0,0,0,192.53,8a9.8,9.8,0,0,0-1.11,4.41,18.28,18.28,0,0,0,.27,4.31,5.85,5.85,0,0,0,.49,1.66,3.15,3.15,0,0,0,1,1.22,6.75,6.75,0,0,0,1.32.59,1.76,1.76,0,0,0,1.56-.21,2.69,2.69,0,0,0,1.08-1.25,9.38,9.38,0,0,0,.8-2.57,21.32,21.32,0,0,0,.24-3.65C198.19,12,198.19,11.56,198.15,11.07Z"/><path class="cls-1" d="M221.49,14.06c0,1,0,1.91-.1,2.88a18.75,18.75,0,0,1-.73,4.38A6.58,6.58,0,0,1,219.34,24l-.45.42c-.11.1-.21.17-.28.24a3.75,3.75,0,0,1-1.67.94c-.27.07-.59.14-.9.24a9.41,9.41,0,0,1-1.7.21,4.31,4.31,0,0,1-1.63-.28c-.42-.17-.91-.31-1.32-.45a6.5,6.5,0,0,1-1.77-1,4.19,4.19,0,0,1-.94-1.29c-.14-.31-.28-.66-.45-1a9.88,9.88,0,0,1-.63-1.67c-.17-.69-.34-1.39-.45-2.12-.07-.38-.1-.79-.14-1.18s-.07-.83-.1-1.25a23.86,23.86,0,0,1-.18-3.5c.07-2,.11-4,.18-6.08,0-.45,0-.9,0-1.36a1.43,1.43,0,0,1,.07-.38c.14-.62.28-1.25.45-1.87a1.87,1.87,0,0,1,1-1.32,1.81,1.81,0,0,1,2.08.27,2,2,0,0,1,.42.7,5.11,5.11,0,0,1,.28,1.8c.07,1.26-.07,2.51-.11,3.76v.59a10.9,10.9,0,0,1-.07,1.14c0,.28,0,.56,0,.84,0,1.25,0,2.5,0,3.75,0,1,0,2,.1,3a6.79,6.79,0,0,0,.46,2.16,4.08,4.08,0,0,0,1.32,1.8,2.92,2.92,0,0,0,.31.14,2.35,2.35,0,0,0,1.46,0,1.39,1.39,0,0,0,.69-.56,5.55,5.55,0,0,0,.77-1.63,14.5,14.5,0,0,0,.66-3.82c.1-2.09.13-4.14.24-6.22.07-1.21.21-2.4.31-3.61,0-.59.07-1.18.14-1.77a4.23,4.23,0,0,1,.87-2.22c.07-.07.14-.14.21-.14A4.67,4.67,0,0,1,219.65,1a2,2,0,0,1,.91.14,1,1,0,0,1,.66.48A2.56,2.56,0,0,1,221.6,3c0,.56,0,1.08,0,1.63V9.37h0C221.53,10.94,221.53,12.5,221.49,14.06Z"/><path class="cls-1" d="M245.81,9.51a5.25,5.25,0,0,1-.56,1.6,4.1,4.1,0,0,1-.45.62,1.62,1.62,0,0,0-.35,1,.61.61,0,0,0,.21.41c.24.25.45.52.66.77a4.29,4.29,0,0,1,.76,1.8,6.78,6.78,0,0,1,.18,1.67c0,.56,0,1.15,0,1.7a10.91,10.91,0,0,1-.28,2.33,5.57,5.57,0,0,1-.17.55,3.63,3.63,0,0,0-.14.46,6.51,6.51,0,0,1-.59,1.49A2.13,2.13,0,0,1,243.69,25a9.64,9.64,0,0,1-2,.27c-.41,0-.86,0-1.28,0s-.7,0-1,0a8.53,8.53,0,0,1-1,0,16.85,16.85,0,0,0-1.88,0c-.55,0-1.14,0-1.73,0a4.85,4.85,0,0,1-.59-.1c-.14,0-.28-.07-.38-.07a2.82,2.82,0,0,1-1-.31.66.66,0,0,1-.27-.28A3.77,3.77,0,0,1,232,23c0-.28,0-.59-.07-.9-.1-2.95-.06-5.94-.1-8.89,0-.73,0-1.43,0-2.16-.07-1.7-.11-3.43-.14-5.14a6,6,0,0,1,0-1.59c.11-.7.07-1.39.18-2.09a1.54,1.54,0,0,1,.17-.59c.14-.24.24-.45.35-.66A1.12,1.12,0,0,1,233,.45,3.11,3.11,0,0,1,234.24.2h1.39c.76,0,1.53,0,2.29,0a9.77,9.77,0,0,1,1.39.14c.66.07,1.32.17,2,.28a2.61,2.61,0,0,1,1,.34c.45.21.87.42,1.32.66a3.09,3.09,0,0,1,.84.77,6,6,0,0,1,1.11,1.8A6.46,6.46,0,0,1,246,5.9c0,.38.07.76.07,1A14.77,14.77,0,0,1,245.81,9.51Zm-5.77.56c.28,0,.52-.07.66-.35a1.77,1.77,0,0,0,.28-1,5.1,5.1,0,0,0,0-.76,3.07,3.07,0,0,0-.31-1.11,1,1,0,0,0-.45-.49A4.3,4.3,0,0,0,238,5.9c-.31,0-.48.14-.52.45a10.88,10.88,0,0,0-.1,2.61,2,2,0,0,0,.14.62.56.56,0,0,0,.59.42c.45,0,.9,0,1.35.07Zm-2.26,9.27a1.21,1.21,0,0,0,.21.49,1,1,0,0,0,1.08.38,1,1,0,0,1,.35,0,5.87,5.87,0,0,0,1.32-.31,1,1,0,0,0,.69-.73,2.52,2.52,0,0,0,.14-1,5.34,5.34,0,0,0-.28-1.94,1.41,1.41,0,0,0-.59-.69,3.79,3.79,0,0,0-1.53-.42,4.51,4.51,0,0,1-.9,0,.64.64,0,0,0-.69.59,4.47,4.47,0,0,0,0,.73c0,.45.07.87.1,1.21A5.64,5.64,0,0,0,237.78,19.34Z"/><path class="cls-1" d="M251.16.93a2.63,2.63,0,0,1,1.14.66,1.75,1.75,0,0,1,.25.32,8.66,8.66,0,0,1,.45,1c.34.73.62,1.46,1,2.15a5,5,0,0,0,.52,1c.07.14.17.28.38.25a.35.35,0,0,0,.38-.21c.28-.45.52-.9.77-1.36.45-.86.9-1.7,1.39-2.57,0-.1.14-.17.24-.27a3.29,3.29,0,0,1,.87-.52.87.87,0,0,1,.31-.07,10,10,0,0,1,2.22.2,1.21,1.21,0,0,1,.73.8,1.78,1.78,0,0,1,0,.94c-.21.66-.49,1.29-.77,1.95s-.62,1.39-.86,2.08c-.32.9-.77,1.74-1.15,2.57-.28.66-.59,1.32-.83,2a9,9,0,0,0-.59,3c0,1.25-.07,2.46-.07,3.68,0,.66,0,1.28,0,1.94v3a2.66,2.66,0,0,1-.42,1.25,1.66,1.66,0,0,1-1.35.73,5.15,5.15,0,0,1-2-.31,1.21,1.21,0,0,1-.69-.84,4,4,0,0,1-.11-.9c0-1.7-.1-3.37-.1-5s.07-3.23.07-4.82a7.21,7.21,0,0,0-.49-2.54,2.69,2.69,0,0,0-.35-.56c-.59-.93-1.14-1.94-1.66-2.91-.39-.8-.8-1.53-1.22-2.29l-.52-1a2.36,2.36,0,0,0-.35-.48,2.23,2.23,0,0,1-.41-1.6A1.43,1.43,0,0,1,248.79.9a2.36,2.36,0,0,1,1.12-.17C250.32.8,250.74.83,251.16.93Z"/><path class="cls-1" d="M287.62,20c0,1.28,0,2.57-.07,3.85a2.88,2.88,0,0,1-.28,1.08.37.37,0,0,1-.27.28,9,9,0,0,1-2.89.07.66.66,0,0,1-.48-.28v0a1.33,1.33,0,0,1-.42-1.25V15.21a2.32,2.32,0,0,0,0-.52.52.52,0,0,0-.39-.59,2.22,2.22,0,0,0-.48-.07c-.66,0-1.32.07-2,.07-.52,0-1.07.07-1.63.14-.17,0-.38,0-.59,0a.52.52,0,0,0-.52.42,1.38,1.38,0,0,0-.1.55c0,.91,0,1.81-.07,2.71,0,1.84,0,3.65,0,5.45a3.82,3.82,0,0,1-.21,1.43c-.14.38-.31.52-.69.52l-1.81,0a7.77,7.77,0,0,1-.83,0,1.21,1.21,0,0,1-1-1.25c0-1.29,0-2.57,0-3.82V17.53c0-.83.07-1.66.07-2.5,0-1.14.07-2.29.07-3.47,0-1,.07-2.05.07-3.06,0-.55-.07-1.11-.07-1.66,0-.94-.07-1.88,0-2.78A13.21,13.21,0,0,1,273.18,2a3.86,3.86,0,0,1,.2-.66,1.08,1.08,0,0,1,1-.59c.7,0,1.39,0,2.08,0a1.06,1.06,0,0,1,.8.45.36.36,0,0,1,.14.31c0,1.08.11,2.16.11,3.23v4.1a1.26,1.26,0,0,0,.2.77.36.36,0,0,0,.35.21l1.15,0a12.61,12.61,0,0,0,1.94-.1,11.73,11.73,0,0,1,1.18,0h.25c.38,0,.52-.14.59-.49a3.06,3.06,0,0,0,.1-.79c0-2.12,0-4.24,0-6.36a1.35,1.35,0,0,1,.48-1,1,1,0,0,1,.8-.31c.49,0,1,0,1.46,0a7.86,7.86,0,0,1,.87.07.51.51,0,0,1,.42.35c.06.28.13.55.17.83,0,.52,0,1.08,0,1.6,0,1.14,0,2.26.07,3.4.07,1.88,0,3.79,0,5.7,0,1,0,2.08,0,3.16C287.59,17.19,287.62,18.61,287.62,20Z"/><path class="cls-1" d="M299.33.69a1.29,1.29,0,0,1,.9.28,4.38,4.38,0,0,1,.87.73.91.91,0,0,1,.17.28,6.57,6.57,0,0,1,.45,1.63A10,10,0,0,0,302,4.89c.14.56.27,1.11.38,1.67a.29.29,0,0,1,0,.14,3.54,3.54,0,0,0,.28,1.35c.21.7.38,1.39.59,2.09a4.43,4.43,0,0,0,.18.59c.13.55.27,1.11.41,1.66.28,1,.59,2,.87,3,.35,1.35.66,2.74,1,4.09.21.8.45,1.57.66,2.33.14.49.28.94.38,1.42a3,3,0,0,1-.17,1,1.59,1.59,0,0,1-1.19.9,5.28,5.28,0,0,1-3,0,.17.17,0,0,0-.1,0,5.81,5.81,0,0,1-.8-.76,1.93,1.93,0,0,1-.49-1.05,1,1,0,0,0-.62-.8c-.11,0-.21,0-.31,0-1,0-1.95,0-2.92-.07-.17,0-.38,0-.59,0a.73.73,0,0,0-.73.31,3.85,3.85,0,0,0-.38.76,2.19,2.19,0,0,1-.94,1.25,2.56,2.56,0,0,1-.42.28,2,2,0,0,1-1,.24,8.31,8.31,0,0,1-2.12-.24,4.28,4.28,0,0,1-.84-.35.61.61,0,0,1-.31-.59,3.12,3.12,0,0,1,.14-1.35c.17-.56.38-1.15.52-1.74s.28-1.18.42-1.77c.21-.87.38-1.74.59-2.6.28-1.08.59-2.12.87-3.16.14-.66.31-1.29.45-1.91s.35-1.29.52-1.91c.14-.46.24-.87.38-1.32.28-.94.59-1.84.83-2.78.14-.52.21-1.08.35-1.63s.38-1.36.66-2A2,2,0,0,1,297.14.83h.14a3.09,3.09,0,0,1,1.39-.14ZM299,16.28a.64.64,0,0,0,.7-.83,4.43,4.43,0,0,0-.18-.59c-.14-.42-.28-.83-.38-1.25s-.17-1-.28-1.53a1.72,1.72,0,0,0-.07-.21c-.07-.14-.17-.14-.28,0s-.06.21-.1.32c-.14.76-.45,1.52-.55,2.32a1.27,1.27,0,0,1-.11.38c-.07.21-.17.46-.24.7s0,.52.31.56.73.1,1.08.13Z"/><path class="cls-1" d="M314.68,9.82c0,.07,0,.11,0,.18.07,2.19.21,4.37.21,6.6,0,.9,0,1.84,0,2.74v.31a.86.86,0,0,0,.91.77c.73,0,1.42.07,2.15.1.45,0,.9.07,1.35.07a2.78,2.78,0,0,1,.56,0,1.15,1.15,0,0,1,1.08.83,4.4,4.4,0,0,1,.13,2.22,2.09,2.09,0,0,1-1,1.29,1.27,1.27,0,0,1-.52.1c-.55,0-1.11,0-1.67,0l-3.19.1-2.74.1a3.44,3.44,0,0,1-.56,0,1.21,1.21,0,0,1-.49-.21,2.37,2.37,0,0,1-.8-1.77c-.06-1.74-.1-3.44-.13-5.18s0-3.5-.07-5.27c0-2.61,0-5.25,0-7.89a2.55,2.55,0,0,1,0-.55,12.74,12.74,0,0,1,.41-1.95,2.18,2.18,0,0,1,.52-.9A2.75,2.75,0,0,1,312.28,1h.32a1.16,1.16,0,0,1,1,.28.62.62,0,0,1,.25.34,9.34,9.34,0,0,1,.27,1c.14.52.21,1.07.32,1.63a2.42,2.42,0,0,1,0,.48c0,.66,0,1.36,0,1.88C314.58,7.74,314.61,8.78,314.68,9.82Z"/><path class="cls-1" d="M338.85,1.07l2.26.11h.21a5,5,0,0,1,2.74,1.25A4.46,4.46,0,0,1,345.21,4c.21.52.38,1,.59,1.49,0,.14.07.28.1.42a15.11,15.11,0,0,1,.35,2.19c0,.8.1,1.6.1,2.36a8.92,8.92,0,0,1-1.14,4.41A5.69,5.69,0,0,1,344,16.39a3.28,3.28,0,0,1-1,.66,11.08,11.08,0,0,0-1.25.59,4.47,4.47,0,0,1-.94.42c-.63.13-1.29.24-1.95.34a2.24,2.24,0,0,1-.52,0c-.41,0-.83.1-1.21.14a.26.26,0,0,0-.28.24,2.32,2.32,0,0,0-.31,1.25c0,.42,0,.87,0,1.28,0,.63,0,1.25,0,1.91a4.56,4.56,0,0,1-.35,1.5,1.07,1.07,0,0,1-.38.41,3.87,3.87,0,0,1-1.84.39,1.14,1.14,0,0,1-.35-.07,9,9,0,0,1-1.08-.32,1.16,1.16,0,0,1-.66-.48,1.56,1.56,0,0,1-.34-1c.17-2.4.1-4.79.1-7.19v-7c0-1.42-.07-2.85-.21-4.3a9.54,9.54,0,0,1,.14-2.44l.11-.48A1.37,1.37,0,0,1,332.91,1c.73,0,1.43,0,2.12,0h.91C336.94,1,337.92,1.07,338.85,1.07ZM336.63,13a2.89,2.89,0,0,0,.07.49c.07.41.14.48.59.52a3.75,3.75,0,0,0,1.25,0,5.47,5.47,0,0,0,1.32-.35,1.22,1.22,0,0,0,.7-.69c.06-.14.13-.28.2-.45a5.51,5.51,0,0,0,.63-2.33,16.1,16.1,0,0,0,0-1.84,4.08,4.08,0,0,0-.38-1.8,1.08,1.08,0,0,0-.48-.49,3.49,3.49,0,0,0-1.36-.38c-.66,0-1.32,0-2,0a.49.49,0,0,0-.45.27,1,1,0,0,0-.1.35,9.18,9.18,0,0,0-.11,1.08c0,1.35,0,2.74.07,4.1Z"/><path class="cls-1" d="M356.36.69a1.29,1.29,0,0,1,.9.28,4.38,4.38,0,0,1,.87.73.91.91,0,0,1,.17.28,6.57,6.57,0,0,1,.45,1.63,10,10,0,0,0,.32,1.28c.14.56.27,1.11.38,1.67a.29.29,0,0,1,0,.14,3.54,3.54,0,0,0,.28,1.35c.21.7.38,1.39.59,2.09,0,.21.11.38.17.59l.42,1.66c.28,1,.59,2,.87,3,.35,1.35.66,2.74,1,4.09.21.8.45,1.57.66,2.33.14.49.28.94.38,1.42a2.77,2.77,0,0,1-.18,1,1.56,1.56,0,0,1-1.18.9,5.29,5.29,0,0,1-2.95,0,.17.17,0,0,0-.1,0,5.81,5.81,0,0,1-.8-.76,1.93,1.93,0,0,1-.49-1.05,1,1,0,0,0-.62-.8c-.11,0-.21,0-.31,0-1,0-2,0-2.92-.07-.17,0-.38,0-.59,0a.73.73,0,0,0-.73.31,3.85,3.85,0,0,0-.38.76,2.19,2.19,0,0,1-.94,1.25,2.56,2.56,0,0,1-.42.28,2,2,0,0,1-1,.24,8.31,8.31,0,0,1-2.12-.24,4.28,4.28,0,0,1-.84-.35.61.61,0,0,1-.31-.59,3.12,3.12,0,0,1,.14-1.35c.17-.56.38-1.15.52-1.74s.28-1.18.42-1.77c.21-.87.38-1.74.59-2.6.28-1.08.59-2.12.87-3.16.13-.66.31-1.29.45-1.91s.34-1.29.52-1.91c.14-.46.24-.87.38-1.32.28-.94.59-1.84.83-2.78.14-.52.21-1.08.35-1.63s.38-1.36.66-2A2,2,0,0,1,354.17.83h.14A3.09,3.09,0,0,1,355.7.69ZM356,16.28a.63.63,0,0,0,.69-.83,3.28,3.28,0,0,0-.17-.59c-.14-.42-.28-.83-.38-1.25s-.17-1-.28-1.53a1.72,1.72,0,0,0-.07-.21c-.07-.14-.17-.14-.28,0a3.12,3.12,0,0,0-.1.32c-.14.76-.45,1.52-.56,2.32a1.64,1.64,0,0,1-.1.38c-.07.21-.17.46-.24.7s0,.52.31.56.73.1,1.08.13Z"/><path class="cls-1" d="M371.54,23.51a2.56,2.56,0,0,1-.35,1.21.46.46,0,0,1-.35.28c-.35.07-.73.14-1.11.24a5.21,5.21,0,0,1-1.67-.07A1.26,1.26,0,0,1,367,23.92c0-1.32-.07-2.6-.11-3.92,0-.52,0-1-.07-1.53,0-.24,0-.48,0-.69V11.84c0-2-.07-4.06-.07-6.08,0-.48.07-.94.1-1.42s.11-.94.14-1.39a4.64,4.64,0,0,1,.38-1.36,1.43,1.43,0,0,1,1.12-.86.43.43,0,0,1,.24,0,5,5,0,0,1,2,.52,2,2,0,0,1,.94,1c.42.8.83,1.57,1.22,2.33s.66,1.36,1,2c.24.48.48,1,.73,1.45s.41.84.62,1.22c.42.87.87,1.7,1.32,2.57.21.42.45.83.7,1.25a.5.5,0,0,0,.24.21.33.33,0,0,0,.45-.21,1.06,1.06,0,0,0,.17-.73c0-1.22-.1-2.43-.13-3.65,0-.69,0-1.39-.07-2.11,0-.94-.07-1.88-.11-2.85,0-.35,0-.66.07-1a4.16,4.16,0,0,1,.63-1.49,1,1,0,0,1,1-.52.47.47,0,0,0,.25,0,3,3,0,0,1,2,.49,1.74,1.74,0,0,1,.73,1.46c0,1.87.07,3.75.07,5.62a5,5,0,0,0,.07.77c0,1.28.06,2.57.13,3.82s.11,2.39.18,3.57c0,.35,0,.66,0,1,0,1.46.07,2.95.11,4.41,0,.45,0,.87,0,1.29a6.06,6.06,0,0,1-.24,1.59c-.07.21-.21.28-.38.39a3.4,3.4,0,0,1-2.47.07,1.78,1.78,0,0,1-.73-.49l-.83-.9a20.56,20.56,0,0,1-1.32-1.67c-.35-.56-.7-1.11-1-1.67-.42-.76-.94-1.49-1.43-2.26-.76-1.18-1.56-2.39-2.32-3.57a.51.51,0,0,0-.46-.28c-.2,0-.31.1-.34.31a1.26,1.26,0,0,0,0,.38c0,1.43,0,2.85,0,4.28h.07Z"/><line class="cls-2" x1="272.83" y1="31.9" x2="382.93" y2="31.9"/></g></g></svg>