<svg xmlns="http://www.w3.org/2000/svg" viewBox="0 0 205.67 51.73"><defs><style>.cls-1{fill:#231f20;}</style></defs><title>Create</title><g id="Layer_2" data-name="Layer 2"><g id="Website"><path class="cls-1" d="M10.18,30.22a18.78,18.78,0,0,0,.49,3A20,20,0,0,0,11.52,36a5.52,5.52,0,0,0,1.55,2.12,1,1,0,0,1,.43.35,6.9,6.9,0,0,0,3.24,2.05A7.07,7.07,0,0,0,20,41a10.57,10.57,0,0,0,3-.85,7.35,7.35,0,0,1,1.7-.35,3.41,3.41,0,0,0,.84-.07,6.72,6.72,0,0,1,3.32.78,3.67,3.67,0,0,1,1.77,2.18A5.7,5.7,0,0,1,30.43,47,4.12,4.12,0,0,1,29,48.71c-.49.29-1.06.57-1.55.85s-1.13.49-1.62.71a12.63,12.63,0,0,1-4.8,1,33.79,33.79,0,0,1-5.51,0,10.16,10.16,0,0,1-2.82-.84c-.7-.36-1.41-.64-2.19-1A11.52,11.52,0,0,1,8,47.94c-.49-.43-1-.78-1.41-1.13L5.73,46a15,15,0,0,1-2.82-4.52,7.06,7.06,0,0,0-.49-1,17.22,17.22,0,0,1-.85-2.54A43.93,43.93,0,0,1,.3,33.12,33.63,33.63,0,0,1,0,27.82a22.78,22.78,0,0,1,.63-4.3c.07-.28.07-.64.14-1,.07-.63.15-1.34.29-2.05a22.31,22.31,0,0,1,.56-3.1c.35-1.48.85-2.89,1.27-4.31a15.9,15.9,0,0,1,.92-1.9A31.54,31.54,0,0,1,6.72,6.58,19.15,19.15,0,0,1,11.1,2.7c.21-.07.49-.21.7-.28s.64-.28,1-.43.92-.35,1.41-.63a14.17,14.17,0,0,1,4-.92,10.31,10.31,0,0,1,3.59.07A.45.45,0,0,0,22,.58a12.28,12.28,0,0,1,5.22,1.7,23.34,23.34,0,0,1,2.19,1.48A1.7,1.7,0,0,1,30.08,5a8.64,8.64,0,0,1,.07,1.9,6.5,6.5,0,0,1-1.62,3.53,3.82,3.82,0,0,1-4.09,1.34c-.78-.14-1.49-.35-2.26-.56a9.81,9.81,0,0,1-.92-.42c-.14,0-.21-.15-.35-.15a7.42,7.42,0,0,0-4.1,0,8.07,8.07,0,0,0-2.25,1.27,12,12,0,0,0-2.4,3.25,19.17,19.17,0,0,0-1.27,3.6,30.41,30.41,0,0,0-.71,4.52c-.07,1.2,0,2.4,0,3.6S10.11,29.09,10.18,30.22Z"/><path class="cls-1" d="M48.36,47.65a4.18,4.18,0,0,1-1.34,3,3.54,3.54,0,0,1-2.33,1,10.73,10.73,0,0,1-2.12,0,4.39,4.39,0,0,1-3.24-1.48,3.15,3.15,0,0,1-.85-2.05c-.07-1.77-.07-3.53-.14-5.29-.07-2.83-.14-5.72-.21-8.54-.14-3.6-.22-7.13-.36-10.73-.07-2.68-.21-5.36-.28-8,0-1.83,0-3.67.07-5.5.14-1.62.35-3.18.5-4.73V5.1a7.05,7.05,0,0,1,1.69-2.82,2.11,2.11,0,0,1,1.76-.64c1,.07,1.91-.07,2.83-.07a9.47,9.47,0,0,1,1.41,0c1.9,0,3.74.07,5.57.07s4-.07,5.86-.07a8,8,0,0,1,2.26.35,10.82,10.82,0,0,1,5.79,4.94A11.64,11.64,0,0,1,66,8.49a25.32,25.32,0,0,1,1.84,9.45v3.74a21.28,21.28,0,0,1-1.27,5.93,12.44,12.44,0,0,1-1.77,3.46,4.53,4.53,0,0,1-.56.63,2.63,2.63,0,0,0-.57,3.46c.36.71.64,1.41,1,2.05.42,1,.85,1.91,1.27,2.89a.56.56,0,0,0,.14.36,24.07,24.07,0,0,0,1.56,3.67,6.37,6.37,0,0,1,.49,1.76,20.75,20.75,0,0,1,.28,2.19,2.78,2.78,0,0,1-1.13,2.33,2.24,2.24,0,0,1-1.83.49c-.36,0-.78.07-1.13.07a18.68,18.68,0,0,1-2,0,8.72,8.72,0,0,1-3-.85,4.07,4.07,0,0,1-1.62-1.69,21,21,0,0,0-.85-2c-.42-.77-.92-1.48-1.41-2.25a24.94,24.94,0,0,1-1.77-3.32,6.52,6.52,0,0,1-.35-.71,9.84,9.84,0,0,1-.63-1.55,1.67,1.67,0,0,0-1.91-1.34,8.56,8.56,0,0,1-1.34,0,.83.83,0,0,0-.85.64,6.57,6.57,0,0,0-.35,2c0,1.27.07,2.54.07,3.81Zm.07-27.8c-.07,1.62-.07,3.25-.14,4.94v1.27a1.7,1.7,0,0,0,1.83,1.83h1.41a1.21,1.21,0,0,0,.5-.07,16.33,16.33,0,0,0,2.4-.84,5.26,5.26,0,0,0,1.69-1.27A6.26,6.26,0,0,0,57.46,23a25.7,25.7,0,0,0,.14-4.72,13.92,13.92,0,0,0-.14-1.7,10.8,10.8,0,0,0-.63-2.12,8.52,8.52,0,0,0-1.13-1.9A4,4,0,0,0,52.52,11H51.18a3.08,3.08,0,0,0-1.9.77,2.66,2.66,0,0,0-.92,2v6Z"/><path class="cls-1" d="M101.92,40.88a2.57,2.57,0,0,1,2.69,1.62,9.44,9.44,0,0,1,.56,5.37,8,8,0,0,1-.56,1.69,1.69,1.69,0,0,1-1.35.92c-1,.07-1.9.07-2.89.07-.56,0-1.13-.07-1.76-.07-1.56.07-3.18.14-4.73.14-1.13.07-2.19-.07-3.25,0l-7.48.21c-1.48,0-3-.07-4.45-.14h-.28c-.56-.42-1.13-.78-1.62-1.2a1.13,1.13,0,0,1-.28-.49,8.27,8.27,0,0,1-.5-3.75c.14-2.11.22-4.16.36-6.21.14-2.75.21-5.5.35-8.25.07-1.06,0-2.19.14-3.25a53.34,53.34,0,0,0-.07-6.7v-.57c-.14-3.74-.21-7.41-.28-11.15a26.26,26.26,0,0,1,.28-3.24,5.11,5.11,0,0,1,.28-1.42,17,17,0,0,1,1.2-3.1A2.39,2.39,0,0,1,79.55.3,6.65,6.65,0,0,1,81.88,0c1.2.07,2.4.07,3.6.14,1.55.07,3.1.14,4.66.28,2.19.07,4.37.14,6.56,0A34.66,34.66,0,0,1,100.51.3a7.35,7.35,0,0,1,1.7.35,4.06,4.06,0,0,1,1,.36,2.37,2.37,0,0,1,1.34,1.83,13.13,13.13,0,0,1,.15,5.51,2.06,2.06,0,0,1-.64,1.2,6.43,6.43,0,0,1-2.19,1.34,9.6,9.6,0,0,1-2,.21h-.57a16.44,16.44,0,0,1-4.16.21,12.1,12.1,0,0,0-2.75.21c-.29.07-.64.07-1,.14a13.89,13.89,0,0,0-1.77.36,1.33,1.33,0,0,0-1.2,1.41c-.07.91-.07,1.83-.07,2.75v.63a1.62,1.62,0,0,0,1.13,1.42,2.22,2.22,0,0,0,.71.07c.77,0,1.62-.07,2.4-.07h.84c1.49.14,3,0,4.38.07a2.73,2.73,0,0,1,2.75,2.25c.14.5.14,1,.28,1.49a5.93,5.93,0,0,1,.15,1.62,3,3,0,0,1-1.28,2.61,3.36,3.36,0,0,1-2.11.78c-.64,0-1.27.14-1.91.14a.89.89,0,0,1-.42.07c-1.2.14-2.4.21-3.53.28-.78.07-1.55.21-2.26.28s-.85.43-1,1a20.8,20.8,0,0,0-.28,3.6A32.56,32.56,0,0,0,88,37.63a15.25,15.25,0,0,0,.21,1.77A1.68,1.68,0,0,0,89.86,41c.7.07,1.41.07,2.11.14h2.68v.07C97.05,41,99.52,41,101.92,40.88Z"/><path class="cls-1" d="M129.45.37a2.55,2.55,0,0,1,1.83.57A8.38,8.38,0,0,1,133,2.42a2.2,2.2,0,0,1,.36.56,14.24,14.24,0,0,1,.92,3.32A20.09,20.09,0,0,0,135,8.91c.28,1.13.56,2.26.78,3.39a.53.53,0,0,1,.07.28,7.11,7.11,0,0,0,.56,2.75c.42,1.41.78,2.83,1.2,4.24a8.1,8.1,0,0,0,.35,1.2c.29,1.13.57,2.25.85,3.38.56,2.05,1.2,4.1,1.77,6.14.7,2.76,1.34,5.58,2,8.33.42,1.62.92,3.18,1.34,4.73.29,1,.57,1.9.78,2.89a5.62,5.62,0,0,1-.35,2.12,3.23,3.23,0,0,1-2.4,1.84,10.93,10.93,0,0,1-6,.07.35.35,0,0,0-.21-.07,11.54,11.54,0,0,1-1.63-1.56,4,4,0,0,1-1-2.11,2,2,0,0,0-1.27-1.63c-.21,0-.42-.07-.63-.07-2-.07-4-.07-5.93-.14-.35,0-.77-.07-1.2-.07a1.5,1.5,0,0,0-1.48.63,8.12,8.12,0,0,0-.78,1.56,4.38,4.38,0,0,1-1.9,2.54,5.91,5.91,0,0,1-.85.56,3.91,3.91,0,0,1-2,.5,17.18,17.18,0,0,1-4.31-.5,8.64,8.64,0,0,1-1.69-.7,1.24,1.24,0,0,1-.64-1.2,6.22,6.22,0,0,1,.28-2.76c.36-1.12.78-2.32,1.06-3.52s.57-2.4.85-3.6c.42-1.77.78-3.53,1.2-5.3.56-2.18,1.2-4.3,1.76-6.42.28-1.34.64-2.61.92-3.88s.71-2.61,1.06-3.88c.28-.92.49-1.76.77-2.68.57-1.91,1.2-3.74,1.7-5.65.28-1.06.42-2.19.7-3.32.43-1.34.78-2.75,1.34-4.09a4.12,4.12,0,0,1,3-2.26h.28A6.39,6.39,0,0,1,128.1.37Zm-.71,31.69a1.29,1.29,0,0,0,1.41-1.7,8.1,8.1,0,0,0-.35-1.2c-.28-.84-.57-1.69-.78-2.54-.21-1.05-.35-2-.56-3.1-.07-.14-.07-.28-.14-.42-.14-.29-.36-.29-.57,0a6.61,6.61,0,0,0-.21.63c-.28,1.55-.92,3.11-1.13,4.73a3.36,3.36,0,0,1-.21.78c-.14.42-.35.91-.5,1.41-.21.7-.07,1.05.64,1.13s1.48.21,2.19.28Z"/><path class="cls-1" d="M153.44,21.47c-.07-1.83-.14-3.67-.21-5.43,0-1-.07-2-.07-3a3.66,3.66,0,0,0-.57-1.55,1.79,1.79,0,0,0-1.41-.77c-1.34,0-2.68-.08-4.09-.08a2.67,2.67,0,0,1-2.19-1.76,9.59,9.59,0,0,1-.07-3.74,11.33,11.33,0,0,0,.35-1.48,3.18,3.18,0,0,1,2.54-2.4,1.1,1.1,0,0,1,.5-.07c1.55,0,3.17.07,4.8.07,3.17,0,6.35,0,9.52.07,1.84,0,3.67.14,5.51.21a1.94,1.94,0,0,1,.85.21,10.39,10.39,0,0,1,1.48.78,3.06,3.06,0,0,1,.7.92,5,5,0,0,1,.5,2.68V7.43a3,3,0,0,1-1,2.4,1.49,1.49,0,0,1-.85.49l-3,.43c-.64.07-1.34.07-2,.14a1.4,1.4,0,0,0-1.27.84,2.67,2.67,0,0,0-.28.78c-.07.71-.21,1.34-.28,2.05-.07.91-.21,1.83-.29,2.68a.89.89,0,0,1-.07.42c-.07,4.8-.14,9.67-.21,14.54-.07,4.23-.07,8.54-.14,12.77a10.07,10.07,0,0,1-1,4.31A3.05,3.05,0,0,1,158.66,51c-.7.07-1.41,0-2.18,0a2.14,2.14,0,0,1-1.7-1,4.89,4.89,0,0,1-1.2-2.75c-.07-1.34-.21-2.68-.21-4.09,0-4.24,0-8.54.07-12.85v-.63h.07C153.51,27,153.51,24.22,153.44,21.47Z"/><path class="cls-1" d="M202.28,40.88A2.56,2.56,0,0,1,205,42.5a9.44,9.44,0,0,1,.56,5.37,8,8,0,0,1-.56,1.69,1.67,1.67,0,0,1-1.34.92c-1,.07-1.91.07-2.9.07-.56,0-1.13-.07-1.76-.07-1.55.07-3.18.14-4.73.14-1.13.07-2.19-.07-3.25,0l-7.48.21c-1.48,0-3-.07-4.44-.14h-.28c-.57-.42-1.13-.78-1.63-1.2a1.13,1.13,0,0,1-.28-.49,8.4,8.4,0,0,1-.49-3.75c.14-2.11.21-4.16.35-6.21.14-2.75.21-5.5.35-8.25.07-1.06,0-2.19.14-3.25a53.34,53.34,0,0,0-.07-6.7v-.57c-.14-3.74-.21-7.41-.28-11.15a26.26,26.26,0,0,1,.28-3.24,5.11,5.11,0,0,1,.28-1.42,17.73,17.73,0,0,1,1.2-3.1A2.42,2.42,0,0,1,179.9.3,6.68,6.68,0,0,1,182.23,0c1.2.07,2.4.07,3.6.14,1.56.07,3.11.14,4.66.28,2.19.07,4.38.14,6.56,0A34.66,34.66,0,0,1,200.86.3a7.35,7.35,0,0,1,1.7.35,4.3,4.3,0,0,1,1,.36,2.39,2.39,0,0,1,1.34,1.83A13.3,13.3,0,0,1,205,8.35a2,2,0,0,1-.64,1.2,6.43,6.43,0,0,1-2.19,1.34,9.6,9.6,0,0,1-2,.21h-.57a16.44,16.44,0,0,1-4.16.21,12.15,12.15,0,0,0-2.75.21c-.28.07-.64.07-1,.14a13.74,13.74,0,0,0-1.76.36,1.32,1.32,0,0,0-1.2,1.41c-.07.91-.07,1.83-.07,2.75v.63a1.61,1.61,0,0,0,1.12,1.42,2.25,2.25,0,0,0,.71.07c.78,0,1.62-.07,2.4-.07h.85c1.48.14,3,0,4.37.07a2.73,2.73,0,0,1,2.75,2.25c.15.5.15,1,.29,1.49a6.34,6.34,0,0,1,.14,1.62A3.06,3.06,0,0,1,200,26.27a3.38,3.38,0,0,1-2.12.78c-.63,0-1.27.14-1.91.14a.89.89,0,0,1-.42.07c-1.2.14-2.4.21-3.53.28-.77.07-1.55.21-2.26.28s-.84.43-1,1a19.87,19.87,0,0,0-.29,3.6,32.56,32.56,0,0,0-.14,5.22,15.25,15.25,0,0,0,.21,1.77A1.69,1.69,0,0,0,190.21,41c.7.07,1.41.07,2.11.14H195v.07C197.41,41,199.88,41,202.28,40.88Z"/></g></g></svg>