<svg xmlns="http://www.w3.org/2000/svg" viewBox="0 0 136.64 35.32"><defs><style>.cls-1{fill:#fff;}</style></defs><title>Delete</title><g id="Layer_2" data-name="Layer 2"><g id="Website"><path class="cls-1" d="M5.67,34.66c-.49,0-1,0-1.47,0a15.11,15.11,0,0,0-1.51-.1A2.29,2.29,0,0,1,1.32,34,1.86,1.86,0,0,1,.5,32.56C.4,31.29.35,30,.25,28.66s-.1-2.64-.1-4c0-1.61,0-3.22-.09-4.88-.1-3.13,0-6.25,0-9.37L.2,8.36C.2,7.43.15,6.5.15,5.58a9.48,9.48,0,0,1,.1-1.71A16.52,16.52,0,0,1,.5,2.21c.09-.29.24-.64.34-.93a1.88,1.88,0,0,1,1.31-1A7.47,7.47,0,0,1,4.5.16H6.4c1.32,0,2.59,0,3.85,0H11a21.57,21.57,0,0,0,2.58.2,4.8,4.8,0,0,1,1.81.58c.92.54,1.71,1.22,2.58,1.76a4.88,4.88,0,0,1,1.71,1.61,15.36,15.36,0,0,1,1.86,2.88A8.94,8.94,0,0,1,22.36,10c.05.92.24,1.8.34,2.68a7,7,0,0,1,.1,1c.09,1,.19,2,.19,3.07a24.87,24.87,0,0,1,0,2.73,33.22,33.22,0,0,1-.83,4.78c-.24.93-.58,1.86-.92,2.79a8.22,8.22,0,0,1-1.76,3c-.29.34-.54.73-.83,1a13.07,13.07,0,0,1-4,2.68,3.22,3.22,0,0,1-.59.29,5,5,0,0,1-.83.2c-.34.1-.73.1-1.12.19a10.14,10.14,0,0,1-2.15.15H5.67ZM15.48,18A12.43,12.43,0,0,0,15,14.51c-.25-1.08-.59-2.15-.93-3.22a3.68,3.68,0,0,0-1.66-2.1,6.73,6.73,0,0,1-.63-.49,2.35,2.35,0,0,0-1.08-.54,5.68,5.68,0,0,0-1.8-.05,1.08,1.08,0,0,0-1,.64,3,3,0,0,0-.39,1.46c-.05.73-.05,1.47-.05,2.15,0,1,.1,2,.1,2.93,0,1.9,0,3.85,0,5.75v2.84A6.8,6.8,0,0,0,8,26.31a1.12,1.12,0,0,0,1.27.79,11.44,11.44,0,0,0,1.8-.35,5,5,0,0,0,3.66-3.27,16.35,16.35,0,0,0,.59-2.09,2.86,2.86,0,0,0,.2-.93V18.75A1.81,1.81,0,0,1,15.48,18Z"/><path class="cls-1" d="M44.26,28.27a1.77,1.77,0,0,1,1.86,1.12,6.48,6.48,0,0,1,.39,3.71,5.36,5.36,0,0,1-.39,1.17,1.16,1.16,0,0,1-.93.63c-.68.05-1.32.05-2,.05-.39,0-.78-.05-1.22-.05-1.07.05-2.19.1-3.27.1-.78,0-1.51,0-2.24,0l-5.18.15c-1,0-2.05,0-3.07-.1H28c-.38-.29-.78-.54-1.12-.83a.94.94,0,0,1-.19-.34,5.63,5.63,0,0,1-.34-2.59c.09-1.46.14-2.88.24-4.29.1-1.91.15-3.81.24-5.71.05-.73,0-1.51.1-2.25a35.67,35.67,0,0,0-.05-4.63V14c-.09-2.59-.14-5.13-.19-7.71a19.89,19.89,0,0,1,.19-2.25,3.36,3.36,0,0,1,.2-1A11,11,0,0,1,27.92.94,1.6,1.6,0,0,1,28.8.21,4.43,4.43,0,0,1,30.41,0c.83,0,1.65,0,2.48.1,1.08.05,2.15.1,3.23.2,1.51,0,3,.09,4.53,0a23.3,23.3,0,0,1,2.64-.1,4.87,4.87,0,0,1,1.17.24,2.74,2.74,0,0,1,.68.25A1.65,1.65,0,0,1,46.07,2a9.24,9.24,0,0,1,.1,3.81,1.41,1.41,0,0,1-.44.83,4.5,4.5,0,0,1-1.51.93,6.52,6.52,0,0,1-1.42.14h-.39a11,11,0,0,1-2.88.15,8.13,8.13,0,0,0-1.9.15c-.2,0-.44,0-.68.09a10.73,10.73,0,0,0-1.23.25.92.92,0,0,0-.83,1c0,.64,0,1.27,0,1.91v.44a1.08,1.08,0,0,0,.78,1,1.45,1.45,0,0,0,.49.05c.53,0,1.12-.05,1.65-.05h.59c1,.1,2,0,3,.05a1.9,1.9,0,0,1,1.9,1.56c.1.34.1.69.19,1a4.25,4.25,0,0,1,.1,1.12,2.11,2.11,0,0,1-.88,1.81,2.34,2.34,0,0,1-1.46.53c-.44,0-.88.1-1.32.1a.59.59,0,0,1-.29.05C38.8,19,38,19,37.19,19c-.54.05-1.07.15-1.56.2s-.59.29-.69.68a14.92,14.92,0,0,0-.19,2.49,21.78,21.78,0,0,0-.1,3.61,10.16,10.16,0,0,0,.15,1.22,1.16,1.16,0,0,0,1.12,1.08c.49,0,1,0,1.46.09h1.86v.05C40.9,28.36,42.61,28.32,44.26,28.27Z"/><path class="cls-1" d="M57.73,13.09c0,.1.05.15.05.24.1,3.08.29,6.15.29,9.28,0,1.27,0,2.58,0,3.85v.44A1.2,1.2,0,0,0,59.34,28c1,0,2,.1,3,.15.63.05,1.27.1,1.9.1a4.36,4.36,0,0,1,.78.05,1.61,1.61,0,0,1,1.51,1.17,6.22,6.22,0,0,1,.2,3.12,3,3,0,0,1-1.37,1.81,1.9,1.9,0,0,1-.73.14c-.78,0-1.56,0-2.34.05l-4.49.15L54,34.85a5.16,5.16,0,0,1-.78,0,1.46,1.46,0,0,1-.68-.3A3.3,3.3,0,0,1,51.39,32c-.1-2.44-.15-4.83-.2-7.27s0-4.93-.1-7.41c0-3.66,0-7.37,0-11.08a5.1,5.1,0,0,1,0-.78,17.42,17.42,0,0,1,.59-2.73,3,3,0,0,1,.73-1.27,3.79,3.79,0,0,1,2-.83h.44A1.66,1.66,0,0,1,56.22,1a.93.93,0,0,1,.34.49A10.33,10.33,0,0,1,57,2.89c.19.73.29,1.51.44,2.3a2.86,2.86,0,0,1,0,.68c.05.93.05,1.9.05,2.63C57.58,10.16,57.63,11.63,57.73,13.09Z"/><path class="cls-1" d="M88.62,28.27a1.76,1.76,0,0,1,1.85,1.12,6.4,6.4,0,0,1,.39,3.71,5.36,5.36,0,0,1-.39,1.17,1.13,1.13,0,0,1-.92.63c-.69.05-1.32.05-2,.05-.4,0-.79-.05-1.23-.05-1.07.05-2.19.1-3.26.1-.78,0-1.52,0-2.25,0l-5.17.15c-1,0-2,0-3.08-.1h-.19c-.39-.29-.78-.54-1.12-.83a.83.83,0,0,1-.2-.34,5.76,5.76,0,0,1-.34-2.59c.1-1.46.15-2.88.24-4.29.1-1.91.15-3.81.25-5.71,0-.73,0-1.51.1-2.25a37.54,37.54,0,0,0,0-4.63V14c-.1-2.59-.15-5.13-.2-7.71a17.88,17.88,0,0,1,.2-2.25,3.34,3.34,0,0,1,.19-1A11.66,11.66,0,0,1,72.27.94a1.63,1.63,0,0,1,.88-.73A4.46,4.46,0,0,1,74.76,0c.83,0,1.66,0,2.49.1,1.07.05,2.15.1,3.22.2,1.51,0,3,.09,4.54,0a23.13,23.13,0,0,1,2.63-.1,4.87,4.87,0,0,1,1.17.24A2.81,2.81,0,0,1,89.5.7,1.64,1.64,0,0,1,90.42,2a8.91,8.91,0,0,1,.1,3.81,1.36,1.36,0,0,1-.44.83,4.4,4.4,0,0,1-1.51.93,6.52,6.52,0,0,1-1.42.14h-.39a11,11,0,0,1-2.87.15A8.21,8.21,0,0,0,82,8c-.19,0-.44,0-.68.09a10.56,10.56,0,0,0-1.22.25.92.92,0,0,0-.83,1c0,.64,0,1.27,0,1.91v.44a1.1,1.1,0,0,0,.78,1,1.48,1.48,0,0,0,.49.05c.54,0,1.12-.05,1.66-.05h.58c1,.1,2.05,0,3,.05a1.89,1.89,0,0,1,1.9,1.56c.1.34.1.69.2,1a4.25,4.25,0,0,1,.1,1.12,2.14,2.14,0,0,1-.88,1.81,2.37,2.37,0,0,1-1.47.53c-.44,0-.87.1-1.31.1a.63.63,0,0,1-.3.05c-.83.1-1.66.15-2.44.19-.53.05-1.07.15-1.56.2s-.58.29-.68.68a13.94,13.94,0,0,0-.2,2.49A22.92,22.92,0,0,0,79,26a10.13,10.13,0,0,0,.14,1.22,1.17,1.17,0,0,0,1.12,1.08c.49,0,1,0,1.47.09h1.85v.05C85.25,28.36,87,28.32,88.62,28.27Z"/><path class="cls-1" d="M100.52,14.85c0-1.27-.09-2.54-.14-3.76,0-.68,0-1.37,0-2.05A2.64,2.64,0,0,0,99.94,8a1.27,1.27,0,0,0-1-.54c-.92,0-1.85,0-2.83,0a1.85,1.85,0,0,1-1.51-1.22,6.39,6.39,0,0,1-.05-2.58,6.65,6.65,0,0,0,.24-1A2.21,2.21,0,0,1,96.57.89a.72.72,0,0,1,.34-.05c1.08,0,2.2.05,3.32.05,2.2,0,4.39,0,6.59,0,1.27,0,2.54.1,3.81.15a1.37,1.37,0,0,1,.58.14,6.58,6.58,0,0,1,1,.54,2.09,2.09,0,0,1,.49.63,3.44,3.44,0,0,1,.34,1.86v.88a2.07,2.07,0,0,1-.68,1.66,1.09,1.09,0,0,1-.58.34l-2.1.29c-.44.05-.93.05-1.37.1a1,1,0,0,0-.88.58,2,2,0,0,0-.19.54c-.05.49-.15.93-.2,1.41,0,.64-.14,1.27-.19,1.86a.59.59,0,0,1-.05.29c0,3.32-.1,6.69-.15,10.05,0,2.93,0,5.91-.1,8.84a6.94,6.94,0,0,1-.68,3,2.08,2.08,0,0,1-1.75,1.22c-.49.05-1,0-1.52,0a1.48,1.48,0,0,1-1.17-.68,3.39,3.39,0,0,1-.83-1.9c-.05-.93-.15-1.86-.15-2.83,0-2.93,0-5.91,0-8.88v-.44h0C100.57,18.65,100.57,16.75,100.52,14.85Z"/><path class="cls-1" d="M134.29,28.27a1.76,1.76,0,0,1,1.85,1.12,6.48,6.48,0,0,1,.4,3.71,5.4,5.4,0,0,1-.4,1.17,1.13,1.13,0,0,1-.92.63c-.69.05-1.32.05-2,.05-.39,0-.78-.05-1.22-.05-1.08.05-2.2.1-3.27.1-.78,0-1.51,0-2.25,0l-5.17.15c-1,0-2,0-3.07-.1H118c-.39-.29-.78-.54-1.12-.83a.83.83,0,0,1-.2-.34,5.76,5.76,0,0,1-.34-2.59c.1-1.46.15-2.88.25-4.29.09-1.91.14-3.81.24-5.71,0-.73,0-1.51.1-2.25a37.54,37.54,0,0,0,0-4.63V14c-.1-2.59-.15-5.13-.2-7.71a17.88,17.88,0,0,1,.2-2.25,3.7,3.7,0,0,1,.19-1,11.66,11.66,0,0,1,.83-2.15,1.63,1.63,0,0,1,.88-.73,4.46,4.46,0,0,1,1.61-.2c.83,0,1.66,0,2.49.1,1.07.05,2.15.1,3.22.2,1.51,0,3,.09,4.54,0a23.21,23.21,0,0,1,2.63-.1,4.77,4.77,0,0,1,1.17.24,2.81,2.81,0,0,1,.69.25A1.65,1.65,0,0,1,136.1,2a9.07,9.07,0,0,1,.09,3.81,1.36,1.36,0,0,1-.44.83,4.4,4.4,0,0,1-1.51.93,6.49,6.49,0,0,1-1.41.14h-.39a11.06,11.06,0,0,1-2.88.15,8.21,8.21,0,0,0-1.91.15c-.19,0-.43,0-.68.09a10.56,10.56,0,0,0-1.22.25.92.92,0,0,0-.83,1c0,.64,0,1.27,0,1.91v.44a1.1,1.1,0,0,0,.78,1,1.51,1.51,0,0,0,.49.05c.54,0,1.12-.05,1.66-.05h.59c1,.1,2,0,3,.05a1.89,1.89,0,0,1,1.9,1.56c.1.34.1.69.2,1a4.25,4.25,0,0,1,.1,1.12,2.14,2.14,0,0,1-.88,1.81,2.37,2.37,0,0,1-1.47.53c-.43,0-.87.1-1.31.1a.63.63,0,0,1-.3.05c-.83.1-1.66.15-2.43.19-.54.05-1.08.15-1.57.2s-.58.29-.68.68a13.94,13.94,0,0,0-.2,2.49,22.92,22.92,0,0,0-.09,3.61,10.13,10.13,0,0,0,.14,1.22A1.17,1.17,0,0,0,126,28.32c.48,0,1,0,1.46.09h1.85v.05C130.92,28.36,132.63,28.32,134.29,28.27Z"/></g></g></svg>