<svg xmlns="http://www.w3.org/2000/svg" viewBox="0 0 232.59 51.52"><title>Random</title><g id="Layer_2" data-name="Layer 2"><g id="Website"><path d="M10,49.26a2.13,2.13,0,0,1-.85,1.55,2,2,0,0,1-1.27.5c-1.06.07-2.18.21-3.24.21A8.25,8.25,0,0,1,2.12,51,2.63,2.63,0,0,1,.85,49.89a11.76,11.76,0,0,1-.71-1.48A4.1,4.1,0,0,1,0,47.49C.35,42.7.21,37.83.21,33c0-5.22-.07-10.38,0-15.53,0-1.9.07-3.81.14-5.71S.42,8,.42,6.07a7,7,0,0,1,.64-2.75A3.09,3.09,0,0,1,3.88,1.55c.85-.07,1.7,0,2.54,0,1.91.07,3.81.07,5.79.07l5.36.21a16.39,16.39,0,0,1,2,.08H20a10.62,10.62,0,0,1,5.72,2.61A9.71,9.71,0,0,1,28,7.62c.35,1,.77,2,1.13,3a2.93,2.93,0,0,1,.28,1.05c.28,1.42.49,2.76.63,4.17a31.53,31.53,0,0,1,.29,4.44,18.54,18.54,0,0,1-1.35,7.34A16.61,16.61,0,0,1,26.39,32c-.14.21-.35.35-.49.56a1.58,1.58,0,0,0-.57,1.77,10.21,10.21,0,0,0,.43,1.2,40.16,40.16,0,0,1,2.33,5c.42,1.06,1,2.12,1.48,3.17a13.58,13.58,0,0,1,1,2.83,3.62,3.62,0,0,1-.92,3.6,2.6,2.6,0,0,1-1.2.7,20.75,20.75,0,0,1-2.19.28,17.62,17.62,0,0,1-1.76.22,1.24,1.24,0,0,1-.5.07,9.14,9.14,0,0,1-2.25-.85,5,5,0,0,1-1.91-2.33c-1-1.69-1.76-3.46-2.61-5.29-.64-1.56-1.41-3-2.12-4.59a1.05,1.05,0,0,0-.7-.63,3.09,3.09,0,0,0-2.26-.08,1.7,1.7,0,0,0-1,.85,8.49,8.49,0,0,0-.71,2.26c-.14.71-.14,1.41-.21,2.12v2C10.16,46.29,10,47.78,10,49.26Zm.49-29.43V27A1.38,1.38,0,0,0,12,28c.77,0,1.55-.07,2.33-.14a8.85,8.85,0,0,0,2.75-.64,2.54,2.54,0,0,0,1.41-1.41c.14-.28.28-.57.42-.92a10.9,10.9,0,0,0,1.27-4.73c.07-1.27.07-2.47.07-3.74a9.58,9.58,0,0,0-.77-3.67,2.23,2.23,0,0,0-1-1A7.93,7.93,0,0,0,15.67,11c-1.34-.07-2.69,0-4,0a1,1,0,0,0-.77.35,3.23,3.23,0,0,0-.57,1.77c.07,2.18.07,4.44.07,6.7Z"/><path d="M56.24.92a2.61,2.61,0,0,1,1.84.56A9.33,9.33,0,0,1,59.84,3a2.82,2.82,0,0,1,.36.57,13.74,13.74,0,0,1,.91,3.32,20.59,20.59,0,0,0,.64,2.61c.28,1.13.56,2.25.78,3.38a.56.56,0,0,1,.07.29,7.18,7.18,0,0,0,.56,2.75c.42,1.41.78,2.82,1.2,4.23a7.45,7.45,0,0,0,.35,1.2c.29,1.13.57,2.26.85,3.39.56,2.05,1.2,4.09,1.76,6.14.71,2.75,1.35,5.58,2.05,8.33.42,1.62.92,3.17,1.34,4.73.28,1,.57,1.9.78,2.89a5.47,5.47,0,0,1-.36,2.12,3.16,3.16,0,0,1-2.39,1.83,10.74,10.74,0,0,1-6,.07.35.35,0,0,0-.21-.07,11.48,11.48,0,0,1-1.63-1.55,4.05,4.05,0,0,1-1-2.12,2,2,0,0,0-1.27-1.62c-.21,0-.42-.07-.63-.07-2-.07-3.95-.07-5.93-.14-.35,0-.78-.07-1.2-.07a1.5,1.5,0,0,0-1.48.63,8,8,0,0,0-.78,1.55,4.39,4.39,0,0,1-1.9,2.54,5.74,5.74,0,0,1-.85.57,4,4,0,0,1-2,.49,17.62,17.62,0,0,1-4.3-.49,7.9,7.9,0,0,1-1.69-.71,1.23,1.23,0,0,1-.64-1.2,6.19,6.19,0,0,1,.28-2.75c.36-1.13.78-2.33,1.06-3.53s.57-2.4.85-3.6c.42-1.76.77-3.53,1.2-5.29.56-2.19,1.2-4.3,1.76-6.42.28-1.34.64-2.61.92-3.88s.7-2.61,1.06-3.88c.28-.92.49-1.77.77-2.69.57-1.9,1.2-3.74,1.7-5.64.28-1.06.42-2.19.7-3.32.43-1.34.78-2.75,1.34-4.09a4.1,4.1,0,0,1,3-2.26h.28A6.39,6.39,0,0,1,54.9.92Zm-.7,31.68A1.29,1.29,0,0,0,57,30.91a7.76,7.76,0,0,0-.35-1.2c-.28-.85-.57-1.69-.78-2.54-.21-1.06-.35-2.05-.56-3.11-.07-.14-.07-.28-.14-.42s-.36-.28-.57,0a6,6,0,0,0-.21.64c-.28,1.55-.92,3.1-1.13,4.72a3.11,3.11,0,0,1-.21.78c-.14.42-.35.92-.5,1.41-.21.71-.07,1.06.64,1.13s1.48.21,2.19.28Z"/><path d="M87.09,47.28a5.25,5.25,0,0,1-.71,2.47,1,1,0,0,1-.71.57c-.7.14-1.48.28-2.25.49A11,11,0,0,1,80,50.67a2.58,2.58,0,0,1-2.19-2.54c-.07-2.68-.14-5.29-.21-8,0-1.06-.07-2-.14-3.11,0-.49-.07-1-.07-1.41V23.57c0-4.09-.14-8.26-.14-12.35,0-1,.14-1.9.21-2.89s.21-1.91.28-2.83a8.72,8.72,0,0,1,.78-2.75A2.87,2.87,0,0,1,80.8,1a1.1,1.1,0,0,1,.5-.07A10.25,10.25,0,0,1,85.39,2,4,4,0,0,1,87.3,4c.84,1.63,1.69,3.18,2.47,4.73.7,1.34,1.34,2.75,2,4.09l1.49,3c.42.84.84,1.69,1.27,2.47.84,1.76,1.76,3.46,2.68,5.22.42.85.91,1.69,1.41,2.54a1,1,0,0,0,.49.42A.68.68,0,0,0,100,26a2.23,2.23,0,0,0,.35-1.48c-.07-2.47-.21-4.94-.28-7.41-.07-1.41-.07-2.82-.14-4.31-.07-1.9-.14-3.81-.21-5.78a20.17,20.17,0,0,1,.14-2,8,8,0,0,1,1.27-3A2.16,2.16,0,0,1,103.18.85a1,1,0,0,0,.49-.07,6.18,6.18,0,0,1,4,1,3.53,3.53,0,0,1,1.48,3c.08,3.81.15,7.62.15,11.43a11.59,11.59,0,0,0,.14,1.55c.07,2.61.14,5.23.28,7.77s.21,4.87.35,7.27a19.87,19.87,0,0,0,.07,2c.07,3,.14,6,.21,9,0,.92.07,1.77.07,2.62a12.58,12.58,0,0,1-.49,3.24c-.14.43-.42.57-.78.78a6.87,6.87,0,0,1-5,.14,3.43,3.43,0,0,1-1.48-1c-.56-.63-1.13-1.2-1.69-1.83a38.67,38.67,0,0,1-2.68-3.39c-.71-1.13-1.42-2.26-2.12-3.39-.85-1.55-1.91-3-2.89-4.59-1.56-2.4-3.18-4.86-4.73-7.26a1,1,0,0,0-.92-.57c-.42.07-.64.21-.71.64a2.87,2.87,0,0,0-.07.77c0,2.9.07,5.79.07,8.68h.15Z"/><path d="M116.65,11.08c0-1.2.22-2.4.29-3.6a25.75,25.75,0,0,1,.63-4A3.76,3.76,0,0,1,121,.78a40.16,40.16,0,0,0,4.09-.29,25.69,25.69,0,0,1,4,0c1.77.07,3.53.14,5.23.29.84.07,1.69.28,2.54.42.49.07,1,.21,1.48.28.14.07.35.07.49.14a22.73,22.73,0,0,1,4.59,2.19,9.47,9.47,0,0,1,2.75,2.82A15.75,15.75,0,0,1,147.56,9a29.22,29.22,0,0,1,1.06,2.76c.14.35.21.7.36,1.05s.21.78.28,1.13c.14,1.2.28,2.33.49,3.53v.35c.07,2.69.35,5.3.28,8-.07,1.55-.14,3.17-.28,4.73a33.6,33.6,0,0,1-1.13,5.36,3.54,3.54,0,0,0-.21,1.13,12.58,12.58,0,0,1-.92,2.82,22.62,22.62,0,0,1-3,5.08A9.41,9.41,0,0,1,143,46.37a17.11,17.11,0,0,1-4.8,3,12.37,12.37,0,0,1-2.19.78,15.68,15.68,0,0,1-2.61.28c-1.2.14-2.4.14-3.6.21-.71,0-1.41.07-2.19.07-1.83.07-3.67.07-5.5.07a17.42,17.42,0,0,1-1.91-.07.84.84,0,0,1-.56-.14,4.31,4.31,0,0,1-2.12-2.47c-.07-.28-.07-.57-.14-.85-.07-1.13-.07-2.19-.14-3.31-.14-2-.28-4.17-.43-6.21,0-.43-.07-.85-.07-1.27-.07-4.1-.07-8.19-.14-12.36S116.58,15.46,116.65,11.08Zm11.51,23.15v3.46a1.6,1.6,0,0,0,1.48,1.55,5.11,5.11,0,0,0,1-.07,31.14,31.14,0,0,0,4.44-1.84,4.7,4.7,0,0,0,1.34-1.13,11.93,11.93,0,0,0,2.19-4.58,32.62,32.62,0,0,0,.92-8.68,17.45,17.45,0,0,0-1-5.37,12.55,12.55,0,0,0-3.81-4.94.6.6,0,0,0-.35-.21c-.85-.28-1.7-.63-2.54-.85a15.25,15.25,0,0,0-1.77-.21.94.94,0,0,0-1.06.71c-.14.49-.35,1.06-.49,1.62-.07.35-.07.71-.14,1.06-.14.71-.28,1.41-.35,2.12s-.07,1.41-.14,2v3c0,1.76.07,3.45.07,5.22C128,29.5,128.09,31.83,128.16,34.23Z"/><path d="M187.51,33.8a22.61,22.61,0,0,1-1.34,4.87c-.29.71-.57,1.41-.85,2.12A19.93,19.93,0,0,1,183.2,44a23.42,23.42,0,0,1-1.9,2.61A13.1,13.1,0,0,1,177.2,50a12.31,12.31,0,0,1-3.6,1.2l-1.69.22h-.49L168.24,51a18.41,18.41,0,0,1-2.61-.77,10.16,10.16,0,0,1-2.26-1.13,17.28,17.28,0,0,1-1.83-1.41,1.41,1.41,0,0,0-.36-.29A12.58,12.58,0,0,1,158,43.83a19.69,19.69,0,0,1-3-8.61,29.81,29.81,0,0,1-.14-6.14c.07-1.06,0-2.19.07-3.25a32.06,32.06,0,0,1,.5-5.22c.14-.85.21-1.77.28-2.61a36.9,36.9,0,0,1,1.06-5.51,17.11,17.11,0,0,1,4-7,18.49,18.49,0,0,1,4.52-3.59A14.32,14.32,0,0,1,169.58.35a21.53,21.53,0,0,1,4.24-.21A12.17,12.17,0,0,1,177,.71a24.76,24.76,0,0,1,4.09,2,7.53,7.53,0,0,1,2.4,2.33,16,16,0,0,1,2.4,4.66c.64,1.9,1.2,3.74,1.77,5.64a24.44,24.44,0,0,1,1,7.7A59.07,59.07,0,0,1,187.51,33.8ZM177.56,22a21.32,21.32,0,0,0-1.27-6.56,12.52,12.52,0,0,0-1.84-3.25,1.74,1.74,0,0,0-1.13-.71,13.39,13.39,0,0,0-1.62-.35,3.1,3.1,0,0,0-2.61.71,15.36,15.36,0,0,0-3,3.81,20,20,0,0,0-2.25,9,36.07,36.07,0,0,0,.56,8.75,11.45,11.45,0,0,0,1,3.39,6.48,6.48,0,0,0,2.12,2.47,12.85,12.85,0,0,0,2.68,1.2,3.59,3.59,0,0,0,3.17-.43,5.45,5.45,0,0,0,2.19-2.54,18.45,18.45,0,0,0,1.62-5.22,42.94,42.94,0,0,0,.5-7.41C177.63,23.92,177.63,23,177.56,22Z"/><path d="M195.2,9a29.42,29.42,0,0,1,.07-3.53,8.71,8.71,0,0,1,1.06-3.24A4.36,4.36,0,0,1,197.39,1a3.13,3.13,0,0,1,2.25-1c1.06.07,2.05.14,3.11.28a3.1,3.1,0,0,1,2.54,1.55,13.31,13.31,0,0,1,1.76,3.11c.64,1.48,1.35,3,2,4.52,1.2,2.47,2.4,4.94,3.6,7.48a1.53,1.53,0,0,0,.21.35.61.61,0,0,0,.92.07,4,4,0,0,0,.49-.56c.71-1.34,1.42-2.69,2.12-4.1.21-.49.42-1,.64-1.48C218,9.1,218.84,7,219.83,4.87a7.82,7.82,0,0,1,2.82-3.25,6.34,6.34,0,0,1,4-1.2c.43.07.85,0,1.27.07a2.66,2.66,0,0,1,.78.07c1.13.29,1.55,1.2,2,2.12a9.24,9.24,0,0,1,.63,3.88c0,2.76.21,5.51.42,8.26.15,1.48.15,3,.22,4.45,0,2.54,0,5.08.14,7.69s.21,5.36.35,8.11a52,52,0,0,1,.07,5.72c-.14,1.41,0,2.82,0,4.23a12.74,12.74,0,0,1-.49,4.31,2.26,2.26,0,0,1-2.12,1.9,6.88,6.88,0,0,1-1.27.15,16.92,16.92,0,0,1-2.68.07,7.32,7.32,0,0,1-1.2-.07A2.18,2.18,0,0,1,223.29,50a14.25,14.25,0,0,1-1-4.94c-.07-2.19-.07-4.38-.14-6.64L222,34.23c-.07-1.63-.07-3.18-.15-4.8a2.45,2.45,0,0,0-.07-.71c-.21-.56-.63-.7-1-.28a3.38,3.38,0,0,0-.71.85c-.56.91-1,1.83-1.48,2.68-.64,1.2-1.27,2.33-2,3.53a3,3,0,0,1-2.26,1.55,3.13,3.13,0,0,1-2.11-.42c-.22-.14-.36-.21-.5-.29a4.38,4.38,0,0,1-1.06-1.2c-.42-1-1-2.11-1.41-3.24s-1.13-2.54-1.62-3.81a1.37,1.37,0,0,0-.64-.64.52.52,0,0,0-.7.36,12.76,12.76,0,0,0-.28,1.62c0,1.76-.07,3.46-.07,5.15,0,3.81,0,7.55-.07,11.29,0,.57-.08,1.2-.08,1.77a5,5,0,0,1-1,2.61,2.49,2.49,0,0,1-2.26,1,12.11,12.11,0,0,1-2.33.08,5.62,5.62,0,0,1-2.4-.43,4.47,4.47,0,0,1-1.84-2.11,10.75,10.75,0,0,1-1-4.66c.07-3.46.14-6.85.21-10.24.07-3,.07-5.85.14-8.82h-.07C195.2,19.76,195.13,14.4,195.2,9Z"/></g></g></svg>