<svg xmlns="http://www.w3.org/2000/svg" viewBox="0 0 514.28 74.66"><defs><style>.cls-1{fill:#231f20;}</style></defs><title>RockFriend</title><g id="Layer_2" data-name="Layer 2"><g id="Website"><path class="cls-1" d="M14.3,70.33a3.09,3.09,0,0,1-1.2,2.22,2.93,2.93,0,0,1-1.82.7c-1.51.1-3.12.31-4.63.31A11.88,11.88,0,0,1,3,72.75a3.89,3.89,0,0,1-1.81-1.51,20.37,20.37,0,0,1-1-2.12A5.85,5.85,0,0,1,0,67.81C.5,61,.3,54,.3,47.16.3,39.71.2,32.35.3,25c0-2.72.1-5.44.2-8.16S.6,11.4.6,8.68a10.48,10.48,0,0,1,.91-3.93,4.43,4.43,0,0,1,4-2.52c1.21-.1,2.42,0,3.63,0,2.72.1,5.44.1,8.26.1l7.65.31a26.77,26.77,0,0,1,2.83.1h.6c3,.6,5.94,1.51,8.16,3.72a13.79,13.79,0,0,1,3.22,4.44c.51,1.41,1.11,2.82,1.61,4.23a4,4,0,0,1,.41,1.51c.4,2,.7,3.93.9,5.94a43.69,43.69,0,0,1,.41,6.35A26.48,26.48,0,0,1,41.3,39.4a23.85,23.85,0,0,1-3.62,6.25c-.21.3-.51.5-.71.81a2.22,2.22,0,0,0-.8,2.52,12,12,0,0,0,.6,1.71,56.11,56.11,0,0,1,3.32,7.15c.61,1.51,1.41,3,2.12,4.53a19.28,19.28,0,0,1,1.41,4,5.17,5.17,0,0,1-1.31,5.14,3.72,3.72,0,0,1-1.71,1,29.68,29.68,0,0,1-3.13.4,21.47,21.47,0,0,1-2.51.3,1.77,1.77,0,0,1-.71.1A12.18,12.18,0,0,1,31,72.14c-1.41-.7-2-2.11-2.72-3.32-1.41-2.42-2.52-4.94-3.73-7.55-.91-2.22-2-4.34-3-6.55a1.51,1.51,0,0,0-1-.91,4.46,4.46,0,0,0-3.22-.1,2.34,2.34,0,0,0-1.41,1.21,11.72,11.72,0,0,0-1,3.22c-.2,1-.2,2-.3,3V64C14.51,66.1,14.3,68.22,14.3,70.33Zm.71-42V38.6A1.94,1.94,0,0,0,17.13,40c1.1,0,2.21-.1,3.32-.2a12.55,12.55,0,0,0,3.93-.91,3.58,3.58,0,0,0,2-2c.2-.41.41-.81.61-1.31a15.65,15.65,0,0,0,1.81-6.75c.1-1.82.1-3.53.1-5.34a13.46,13.46,0,0,0-1.11-5.24,3.15,3.15,0,0,0-1.41-1.41,11.55,11.55,0,0,0-4-1.11c-1.91-.1-3.82,0-5.74,0a1.44,1.44,0,0,0-1.11.51,4.66,4.66,0,0,0-.8,2.51c.1,3.13.1,6.35.1,9.57Z"/><path class="cls-1" d="M98.12,48.27a32.46,32.46,0,0,1-1.91,6.95c-.41,1-.81,2-1.21,3a28,28,0,0,1-3,4.64,30.24,30.24,0,0,1-2.72,3.72,18.8,18.8,0,0,1-5.84,4.74,18.19,18.19,0,0,1-5.14,1.71l-2.41.3h-.71l-4.53-.6a26.37,26.37,0,0,1-3.73-1.11A13.66,13.66,0,0,1,63.67,70a21.18,21.18,0,0,1-2.62-2,2.06,2.06,0,0,0-.51-.4,18.08,18.08,0,0,1-4.53-5,27.86,27.86,0,0,1-4.23-12.29,42.45,42.45,0,0,1-.2-8.76c.1-1.51,0-3.12.1-4.63a46,46,0,0,1,.7-7.46c.21-1.21.31-2.52.41-3.73a53.23,53.23,0,0,1,1.51-7.85c1.31-3.63,2.82-7.26,5.74-10a26.81,26.81,0,0,1,6.45-5.13,20.54,20.54,0,0,1,6-2.22,30.69,30.69,0,0,1,6-.3,18,18,0,0,1,4.53.8A36.18,36.18,0,0,1,89,3.94a10.91,10.91,0,0,1,3.43,3.33,22.91,22.91,0,0,1,3.42,6.65c.91,2.72,1.72,5.34,2.52,8.06a34.46,34.46,0,0,1,1.41,11A83.59,83.59,0,0,1,98.12,48.27ZM83.92,31.45a30.48,30.48,0,0,0-1.82-9.37,17.55,17.55,0,0,0-2.62-4.64,2.47,2.47,0,0,0-1.61-1,18.86,18.86,0,0,0-2.32-.51,4.42,4.42,0,0,0-3.72,1,21.67,21.67,0,0,0-4.23,5.44,28.59,28.59,0,0,0-3.23,12.79,51.75,51.75,0,0,0,.81,12.5,16.4,16.4,0,0,0,1.41,4.83,9.27,9.27,0,0,0,3,3.53,18.69,18.69,0,0,0,3.83,1.71A5.16,5.16,0,0,0,78,57.13a7.79,7.79,0,0,0,3.12-3.62,26.67,26.67,0,0,0,2.32-7.46,61.58,61.58,0,0,0,.71-10.57C84,34.17,84,32.86,83.92,31.45Z"/><path class="cls-1" d="M121.79,43.94a25.55,25.55,0,0,0,.71,4.23,25.71,25.71,0,0,0,1.21,4,7.75,7.75,0,0,0,2.21,3,1.5,1.5,0,0,1,.61.5,9.85,9.85,0,0,0,4.63,2.93,10,10,0,0,0,4.63.7A15.35,15.35,0,0,0,140,58.14a10.35,10.35,0,0,1,2.41-.5,4.91,4.91,0,0,0,1.21-.1,9.63,9.63,0,0,1,4.74,1.11,5.22,5.22,0,0,1,2.52,3.12,8.12,8.12,0,0,1-.21,6.14,6,6,0,0,1-2.11,2.42c-.71.4-1.51.81-2.22,1.21s-1.61.71-2.32,1a17.74,17.74,0,0,1-6.85,1.51,51.43,51.43,0,0,1-7.85,0,14.41,14.41,0,0,1-4-1.21c-1-.5-2-.91-3.13-1.41a15.72,15.72,0,0,1-3.52-2.22c-.71-.6-1.41-1.1-2-1.61l-1.2-1.21a20.89,20.89,0,0,1-4-6.44,11.52,11.52,0,0,0-.71-1.52,25.21,25.21,0,0,1-1.21-3.62,62.33,62.33,0,0,1-1.81-6.75,46.74,46.74,0,0,1-.4-7.56,32.51,32.51,0,0,1,.9-6.14c.1-.4.1-.91.2-1.41.1-.91.2-1.92.41-2.92a31.66,31.66,0,0,1,.8-4.44c.51-2.11,1.21-4.13,1.82-6.14a21.35,21.35,0,0,1,1.31-2.72,44.16,44.16,0,0,1,4.13-6.55,27.35,27.35,0,0,1,6.24-5.54c.3-.1.71-.3,1-.4.5-.2.91-.41,1.41-.61s1.31-.5,2-.9a20,20,0,0,1,5.64-1.31,14.55,14.55,0,0,1,5.14.1.63.63,0,0,0,.41.1,17.56,17.56,0,0,1,7.45,2.42,32.76,32.76,0,0,1,3.12,2.11,2.4,2.4,0,0,1,.91,1.71,12.42,12.42,0,0,1,.1,2.72,9.29,9.29,0,0,1-2.32,5,5.46,5.46,0,0,1-5.84,1.91c-1.11-.2-2.11-.5-3.22-.8a11.24,11.24,0,0,1-1.31-.61c-.2,0-.3-.2-.51-.2-1.91-.3-3.82-.8-5.84,0A11.09,11.09,0,0,0,128,17.75a17.42,17.42,0,0,0-3.43,4.63,28.12,28.12,0,0,0-1.81,5.14,45.39,45.39,0,0,0-1,6.45c-.1,1.71,0,3.42,0,5.13S121.69,42.33,121.79,43.94Z"/><path class="cls-1" d="M165.21,74.56a7.19,7.19,0,0,1-3.12-1.71,2.22,2.22,0,0,1-.91-1.31c-.2-.91-.4-1.81-.6-2.82a30.49,30.49,0,0,1-.41-6.15c-.1-5.64-.1-11.38-.2-17-.1-5.24-.1-10.48-.2-15.61-.2-4-.4-8.06-.3-12.09,0-1.92,0-3.83.1-5.75.2-2.31.6-4.63,1-7a6.53,6.53,0,0,1,1.31-2.82A4.26,4.26,0,0,1,165.11.92c1-.1,2-.1,3-.1a4.75,4.75,0,0,1,4.54,3.63,20.31,20.31,0,0,1,.7,5.44c-.1,2.21-.1,4.43-.1,6.55,0,1.61.1,3.12.1,4.63,0,1.31.71,1.31,1.61.81a5.18,5.18,0,0,0,1.61-1.31c1-1.31,1.92-2.62,2.82-3.93a8.11,8.11,0,0,1,1-1.51,46.73,46.73,0,0,0,4-5.85c1.11-1.51,2.12-3,3.22-4.43a15,15,0,0,1,6-4.33,11,11,0,0,1,3.63-.5,8.28,8.28,0,0,1,2.71.2,3.79,3.79,0,0,1,2.62,3.12v.4a3.66,3.66,0,0,1-.7,3.23,5.58,5.58,0,0,0-.5.8,24.42,24.42,0,0,1-2.52,3.93c-1.21,1.71-2.32,3.43-3.53,5.14-2.32,3.53-4.63,7-7,10.38a8.36,8.36,0,0,0-.81,1.61,6.51,6.51,0,0,0-.4,4.13,3.88,3.88,0,0,0,.5,1.11c1.72,3,3.43,5.94,5.14,8.86.2.3.41.71.71,1.11,1.81,2.82,3.73,5.74,5.54,8.66,2.32,3.83,4.43,7.66,6.75,11.49l.9,1.51a2,2,0,0,1,.41,1.31c-.2.8-.3,1.71-.51,2.52a4.56,4.56,0,0,1-4,2.72,9.56,9.56,0,0,1-3.82-.31A8.55,8.55,0,0,1,195,69.83c-.5-.51-1-1-1.51-1.51a4.6,4.6,0,0,1-.91-1c-1.91-2.82-3.73-5.64-5.64-8.46-.6-1.11-1.41-2-2.12-3.13-1.31-2.11-2.72-4.33-4-6.44-.91-1.41-1.92-2.72-2.83-4a2.69,2.69,0,0,0-.5-.61,1.79,1.79,0,0,0-3.22.81,12.18,12.18,0,0,0-.41,2.72c-.3,4.63.21,9.37,0,14a37,37,0,0,1-.8,7.46,8,8,0,0,1-1.51,3.22,6.33,6.33,0,0,1-.81.71,6.81,6.81,0,0,1-3.42,1c-.51,0-.91.1-1.41.1h-.51C165.31,74.66,165.31,74.56,165.21,74.56Z"/><path class="cls-1" d="M238.75,30.14c0-1.72.1-3.43.1-5.14,0-5.64-.1-11.38-.1-17a13.83,13.83,0,0,1,.3-2.92,5,5,0,0,1,2.22-3.12,9.53,9.53,0,0,1,2.92-.7C248,.92,251.74.82,255.57.82H271a4.39,4.39,0,0,1,2,.41,4.13,4.13,0,0,1,2.52,3.82c0,2-.1,4-.1,6.05-.1.3,0,.6-.1,1a8.71,8.71,0,0,1-.61,1.72,2.11,2.11,0,0,1-2,1.31,16.45,16.45,0,0,1-2.22,0c-3-.1-6,.1-9.06.3-1.21.1-2.32,0-3.53.1a16.5,16.5,0,0,0-2.22.1,1.43,1.43,0,0,0-1.31,1,5.47,5.47,0,0,0-.6,2.52c.1,2.51.1,5,.1,7.55a3.26,3.26,0,0,0,.81,1.82,1.39,1.39,0,0,0,1,.5c1.51-.1,2.92-.1,4.33-.2.31,0,.61-.1.91-.1,2.72.1,5.44.1,8.16.2a2.08,2.08,0,0,1,2.32,2.32c.1,2.11.1,4.33.1,6.54a2.23,2.23,0,0,1-.1.81,2.42,2.42,0,0,1-2.32,2.32,22.12,22.12,0,0,1-5.14.2c-2.62-.1-5.34,0-8,0a2.31,2.31,0,0,0-2,1.11,3.8,3.8,0,0,0-.8,2.31c-.11,2.22-.11,4.44-.11,6.65,0,4.53.11,9.07.11,13.6a28.07,28.07,0,0,1-.31,5c-.1.4-.2.8-.3,1.11a2.15,2.15,0,0,1-2,1.61c-1.52,0-2.93,0-4.44-.1s-2.82-.1-4.23-.1a2.22,2.22,0,0,1-2-1.21,5.12,5.12,0,0,1-1-3.23v-4c0-1.61-.1-3.22-.1-4.83V30.14Z"/><path class="cls-1" d="M297.78,68.82a6,6,0,0,1-1.91,4.33,5,5,0,0,1-3.33,1.41,15.24,15.24,0,0,1-3,0,6.24,6.24,0,0,1-4.63-2.11,4.49,4.49,0,0,1-1.21-2.92c-.1-2.52-.1-5-.2-7.56-.1-4-.21-8.16-.31-12.19-.2-5.14-.3-10.17-.5-15.31-.1-3.83-.3-7.66-.4-11.49,0-2.61,0-5.23.1-7.85.2-2.32.5-4.54.7-6.75v-.3a10.22,10.22,0,0,1,2.42-4A3,3,0,0,1,288,3.14c1.41.1,2.72-.1,4-.1a13.47,13.47,0,0,1,2,0c2.72,0,5.34.1,8,.1,2.82,0,5.64-.1,8.36-.1a11.48,11.48,0,0,1,3.23.5c3.72,1.21,6.24,3.83,8.26,7.05a16.52,16.52,0,0,1,1.1,2.32,36,36,0,0,1,2.62,13.5v5.34a30.07,30.07,0,0,1-1.81,8.46,17.47,17.47,0,0,1-2.52,4.94,6.47,6.47,0,0,1-.8.9,3.75,3.75,0,0,0-.81,4.94c.5,1,.91,2,1.41,2.92.61,1.41,1.21,2.72,1.81,4.13a.77.77,0,0,0,.21.51,34.14,34.14,0,0,0,2.21,5.23A9,9,0,0,1,326,66.3a29.68,29.68,0,0,1,.4,3.13c.2,1.41-.7,2.41-1.61,3.32a3.18,3.18,0,0,1-2.62.7c-.5,0-1.11.11-1.61.11a26.53,26.53,0,0,1-2.82,0,13,13,0,0,1-4.23-1.21,6,6,0,0,1-2.32-2.42A24.78,24.78,0,0,0,310,67c-.6-1.11-1.31-2.12-2-3.23a34.32,34.32,0,0,1-2.52-4.73,9.59,9.59,0,0,1-.51-1,14.58,14.58,0,0,1-.9-2.21,2.38,2.38,0,0,0-2.72-1.92,12.31,12.31,0,0,1-1.92,0,1.19,1.19,0,0,0-1.21.91,9.37,9.37,0,0,0-.5,2.92c0,1.81.1,3.63.1,5.44Zm.1-39.69c-.1,2.32-.1,4.63-.2,7.05V38a2.43,2.43,0,0,0,2.62,2.62h2a1.73,1.73,0,0,0,.71-.1,21.83,21.83,0,0,0,3.42-1.21,7.1,7.1,0,0,0,2.42-1.81,9.05,9.05,0,0,0,1.92-3.93,38.07,38.07,0,0,0,.2-6.75,19.9,19.9,0,0,0-.2-2.42,16,16,0,0,0-.91-3,12.43,12.43,0,0,0-1.61-2.72,5.73,5.73,0,0,0-4.54-2.11h-1.91a4.35,4.35,0,0,0-2.72,1.11,3.78,3.78,0,0,0-1.31,2.92v8.56Z"/><path class="cls-1" d="M350.67,19.66c.1,2.52.1,4.94.2,7.35V41.72c-.1,3.83-.3,7.66-.4,11.59-.1,2.11-.1,4.33-.21,6.54-.1,2-.2,3.93-.3,5.95a27,27,0,0,1-.3,2.82,3.36,3.36,0,0,1-.5,1.61,10.18,10.18,0,0,1-.81,1.41A3.7,3.7,0,0,1,345,73.35a12.31,12.31,0,0,1-1.92,0,5.06,5.06,0,0,1-3.73-1.21,6.33,6.33,0,0,1-1.3-1.91,8.55,8.55,0,0,1-.81-4.23c.1-3.53.3-7,.4-10.38,0-1.71.1-3.42.1-5V33.26q0-4.08-.3-8.16a118.84,118.84,0,0,1-.1-14.61,28.69,28.69,0,0,1,.3-4.13,9.43,9.43,0,0,1,1.71-3.83,2.22,2.22,0,0,1,2-1.1c2,.1,4,.1,6,.2a2,2,0,0,1,1.72,1.11,7.62,7.62,0,0,1,1.1,3.82c.11,2,0,3.93,0,6.75C350.37,14.82,350.57,17.24,350.67,19.66Z"/><path class="cls-1" d="M396.4,59.15a3.66,3.66,0,0,1,3.83,2.32,13.24,13.24,0,0,1,.8,7.65,11.44,11.44,0,0,1-.8,2.42,2.36,2.36,0,0,1-1.92,1.31c-1.41.1-2.72.1-4.13.1-.8,0-1.61-.1-2.51-.1-2.22.1-4.54.2-6.75.2-1.62.1-3.13-.1-4.64,0l-10.68.3c-2.11,0-4.23-.1-6.34-.2h-.41c-.8-.6-1.61-1.11-2.31-1.71a1.71,1.71,0,0,1-.41-.71,11.91,11.91,0,0,1-.7-5.33c.2-3,.3-6,.5-8.87.2-3.93.31-7.86.51-11.79.1-1.51,0-3.12.2-4.63a76.21,76.21,0,0,0-.1-9.57v-.81c-.2-5.34-.3-10.57-.41-15.91a38.18,38.18,0,0,1,.41-4.64,7.17,7.17,0,0,1,.4-2,23.85,23.85,0,0,1,1.71-4.43,3.37,3.37,0,0,1,1.82-1.51,9.22,9.22,0,0,1,3.32-.41c1.71.1,3.43.1,5.14.2,2.21.1,4.43.21,6.65.41,3.12.1,6.24.2,9.37,0a49.37,49.37,0,0,1,5.44-.2,10.35,10.35,0,0,1,2.41.5,5.71,5.71,0,0,1,1.41.5,3.43,3.43,0,0,1,1.92,2.62,19,19,0,0,1,.2,7.86,2.83,2.83,0,0,1-.91,1.71,9,9,0,0,1-3.12,1.92,13.76,13.76,0,0,1-2.92.3h-.81a23.47,23.47,0,0,1-5.94.3,17.37,17.37,0,0,0-3.93.3c-.4.1-.91.1-1.41.2a22.5,22.5,0,0,0-2.52.51,1.89,1.89,0,0,0-1.71,2c-.1,1.31-.1,2.62-.1,3.93v.91a2.26,2.26,0,0,0,1.61,2,3.12,3.12,0,0,0,1,.1c1.11,0,2.31-.1,3.42-.1h1.21c2.12.2,4.23,0,6.25.1a3.92,3.92,0,0,1,3.93,3.23c.2.7.2,1.41.4,2.11a9.11,9.11,0,0,1,.2,2.32,4.37,4.37,0,0,1-1.81,3.73,4.9,4.9,0,0,1-3,1.1c-.9,0-1.81.21-2.72.21a1.27,1.27,0,0,1-.6.1c-1.71.2-3.42.3-5,.4-1.1.1-2.21.3-3.22.4s-1.21.61-1.41,1.41a29.75,29.75,0,0,0-.4,5.14,45.38,45.38,0,0,0-.21,7.46,21.5,21.5,0,0,0,.31,2.51,2.39,2.39,0,0,0,2.31,2.22c1,.1,2,.1,3,.2H386v.1C389.45,59.35,393,59.25,396.4,59.15Z"/><path class="cls-1" d="M424.41,67.51a7.55,7.55,0,0,1-1,3.53,1.39,1.39,0,0,1-1,.8c-1,.2-2.11.41-3.22.71a15.74,15.74,0,0,1-4.84-.2,3.69,3.69,0,0,1-3.12-3.63c-.1-3.83-.2-7.56-.3-11.38,0-1.51-.1-2.93-.2-4.44,0-.7-.11-1.41-.11-2V33.66c0-5.84-.2-11.78-.2-17.63,0-1.41.2-2.72.31-4.13s.3-2.72.4-4a12.46,12.46,0,0,1,1.11-3.93,4.1,4.1,0,0,1,3.22-2.51,1.48,1.48,0,0,1,.7-.1A14.74,14.74,0,0,1,422,2.84a5.7,5.7,0,0,1,2.72,2.82c1.21,2.31,2.41,4.53,3.52,6.75,1,1.91,1.92,3.93,2.82,5.84l2.12,4.23c.6,1.21,1.21,2.42,1.81,3.53,1.21,2.52,2.52,4.93,3.83,7.45.61,1.21,1.31,2.42,2,3.63a1.41,1.41,0,0,0,.7.6,1,1,0,0,0,1.31-.6,3.2,3.2,0,0,0,.5-2.12c-.1-3.52-.3-7-.4-10.58-.1-2-.1-4-.2-6.14-.1-2.72-.2-5.44-.3-8.26a28.64,28.64,0,0,1,.2-2.92,11.76,11.76,0,0,1,1.81-4.33,3.07,3.07,0,0,1,2.92-1.51,1.38,1.38,0,0,0,.71-.11,8.83,8.83,0,0,1,5.74,1.41,5,5,0,0,1,2.12,4.24c.1,5.44.2,10.88.2,16.32a16.5,16.5,0,0,0,.2,2.21c.1,3.73.2,7.46.4,11.08s.3,6.95.51,10.38a28.49,28.49,0,0,0,.1,2.92c.1,4.23.2,8.56.3,12.79,0,1.31.1,2.52.1,3.73a17.61,17.61,0,0,1-.71,4.64c-.2.6-.6.8-1.1,1.1a9.73,9.73,0,0,1-7.16.2,4.83,4.83,0,0,1-2.11-1.41c-.81-.9-1.61-1.71-2.42-2.61a59.74,59.74,0,0,1-3.83-4.84l-3-4.84c-1.21-2.21-2.72-4.33-4.13-6.54-2.22-3.43-4.53-6.95-6.75-10.38a1.45,1.45,0,0,0-1.31-.81c-.6.11-.91.31-1,.91a4.18,4.18,0,0,0-.1,1.11c0,4.13.1,8.26.1,12.39h.21Z"/><path class="cls-1" d="M466.61,15.83c0-1.71.31-3.42.41-5.14a37,37,0,0,1,.9-5.64,5.37,5.37,0,0,1,4.94-3.93,57.28,57.28,0,0,0,5.84-.4,36.66,36.66,0,0,1,5.74,0c2.52.1,5,.2,7.46.4,1.21.11,2.42.41,3.63.61.7.1,1.41.3,2.11.4.2.1.5.1.71.2a32.71,32.71,0,0,1,6.54,3.13,13.24,13.24,0,0,1,3.93,4,22.51,22.51,0,0,1,1.92,3.42c.6,1.21,1,2.62,1.51,3.93.2.5.3,1,.5,1.51s.3,1.11.4,1.61c.21,1.71.41,3.33.71,5v.5c.1,3.83.5,7.56.4,11.39-.1,2.21-.2,4.53-.4,6.75a49.52,49.52,0,0,1-1.61,7.65,5.08,5.08,0,0,0-.3,1.61,19.57,19.57,0,0,1-1.31,4,32.86,32.86,0,0,1-4.34,7.26,13.28,13.28,0,0,1-2.11,2,24.19,24.19,0,0,1-6.85,4.23,16.07,16.07,0,0,1-3.12,1.11,22.42,22.42,0,0,1-3.73.4c-1.71.2-3.43.2-5.14.31-1,0-2,.1-3.12.1-2.62.1-5.24.1-7.86.1a24.73,24.73,0,0,1-2.72-.1,1.2,1.2,0,0,1-.81-.21,6.15,6.15,0,0,1-3-3.52c-.1-.4-.1-.81-.2-1.21-.1-1.61-.1-3.12-.2-4.73-.2-2.93-.4-6-.61-8.87,0-.6-.1-1.21-.1-1.81-.1-5.85-.1-11.69-.2-17.63C466.51,28.22,466.51,22.08,466.61,15.83Zm16.42,33v4.94A2.29,2.29,0,0,0,485.15,56a7.18,7.18,0,0,0,1.41-.1,45.74,45.74,0,0,0,6.35-2.62,7.31,7.31,0,0,0,1.91-1.61,17.19,17.19,0,0,0,3.12-6.55,46.64,46.64,0,0,0,1.31-12.39,25,25,0,0,0-1.41-7.66,17.74,17.74,0,0,0-5.44-7,.85.85,0,0,0-.5-.3c-1.21-.41-2.42-.91-3.63-1.21a21.38,21.38,0,0,0-2.52-.3,1.33,1.33,0,0,0-1.51,1c-.2.71-.5,1.51-.7,2.32-.1.5-.1,1-.2,1.51a29.3,29.3,0,0,0-.51,3c-.1,1-.1,2-.2,2.92v4.24c0,2.51.1,4.93.1,7.45C482.83,42.12,482.93,45.45,483,48.87Z"/></g></g></svg>