<svg xmlns="http://www.w3.org/2000/svg" viewBox="0 0 91.69 35.35"><defs><style>.cls-1{fill:#fff;}</style></defs><title>Save</title><g id="Layer_2" data-name="Layer 2"><g id="Website"><path class="cls-1" d="M12.74.6A7.94,7.94,0,0,1,16,2a10.8,10.8,0,0,1,1.95,1.66,2.09,2.09,0,0,1,.44.83,5.5,5.5,0,0,1,0,1.81,2.31,2.31,0,0,1-.54,1.17A3.46,3.46,0,0,1,16.3,8.75a2.9,2.9,0,0,1-1.81.14,1.75,1.75,0,0,1-.73-.44,4.83,4.83,0,0,0-2.39-.82,14,14,0,0,0-2,0,2,2,0,0,0-1.41.68,5.53,5.53,0,0,0-.69.83A1.68,1.68,0,0,0,7,9.82a2.64,2.64,0,0,0,.24,1.47,2.56,2.56,0,0,0,.83,1,19.25,19.25,0,0,0,3.17,2c.54.29,1.13.49,1.66.73A15.59,15.59,0,0,1,16,16.9c.48.39.87.83,1.36,1.22a6.5,6.5,0,0,1,1.86,2.58,10.92,10.92,0,0,1,.68,4.49A10.39,10.39,0,0,1,18,30.71a11.69,11.69,0,0,1-1.91,2.19,13.05,13.05,0,0,1-3.17,1.91c-.48.19-1,.24-1.56.39a10.23,10.23,0,0,1-3.22,0,18.23,18.23,0,0,1-1.9-.39,10.86,10.86,0,0,1-2.93-1.41c-.19-.15-.44-.29-.63-.44a6.54,6.54,0,0,1-2.2-2.24A3.44,3.44,0,0,1,.2,27.88a1.72,1.72,0,0,1,.53-1c.39-.39.83-.78,1.27-1.17a1.4,1.4,0,0,1,1.37-.29A3.16,3.16,0,0,1,4.68,26c.54.39,1,.83,1.57,1.17A9.43,9.43,0,0,0,9,28.27a3.29,3.29,0,0,0,2.15-.3,3.11,3.11,0,0,0,1.75-1.51,1.08,1.08,0,0,0,.15-.54,2.59,2.59,0,0,0-.15-1.51,2.84,2.84,0,0,0-.83-1.07,15.19,15.19,0,0,0-3.51-2.1c-1.12-.49-2.2-1-3.27-1.61a18.12,18.12,0,0,1-1.56-1.17c-.49-.39-.93-.83-1.37-1.22A6.28,6.28,0,0,1,1,15.29a7.4,7.4,0,0,1-.53-1.61,11.9,11.9,0,0,1-.29-2,10.7,10.7,0,0,1,.92-4.93A14.44,14.44,0,0,1,2.93,3.92,9.92,9.92,0,0,1,5.61,1.67c.3-.19.64-.34.93-.49A6.91,6.91,0,0,1,9.32.4c.49-.05,1-.05,1.46-.09A6.42,6.42,0,0,1,12.74.6Z"/><path class="cls-1" d="M36,.26a1.75,1.75,0,0,1,1.27.39,6,6,0,0,1,1.22,1,1.87,1.87,0,0,1,.24.39,9.26,9.26,0,0,1,.64,2.3,13.43,13.43,0,0,0,.44,1.8c.19.78.39,1.56.53,2.34a.38.38,0,0,1,0,.2,5,5,0,0,0,.39,1.9c.3,1,.54,2,.83,2.93a5.24,5.24,0,0,0,.25.83l.58,2.34c.39,1.42.83,2.83,1.22,4.25.49,1.9.93,3.85,1.42,5.76.29,1.12.63,2.19.92,3.26.2.69.4,1.32.54,2a4,4,0,0,1-.24,1.46,2.23,2.23,0,0,1-1.66,1.27,7.51,7.51,0,0,1-4.15,0,.25.25,0,0,0-.15,0,7.67,7.67,0,0,1-1.12-1.08,2.71,2.71,0,0,1-.68-1.46,1.39,1.39,0,0,0-.88-1.12c-.15,0-.29-.05-.44-.05-1.37-.05-2.73-.05-4.1-.1-.24,0-.54,0-.83,0a1,1,0,0,0-1,.44,5.19,5.19,0,0,0-.54,1.08,3,3,0,0,1-1.32,1.75,3.28,3.28,0,0,1-.58.39,2.72,2.72,0,0,1-1.42.34,11.77,11.77,0,0,1-3-.34A5.58,5.58,0,0,1,23.27,34a.84.84,0,0,1-.43-.82A4.31,4.31,0,0,1,23,31.29c.24-.78.54-1.61.73-2.44s.39-1.66.59-2.49c.29-1.22.54-2.44.83-3.66.39-1.51.83-3,1.22-4.44.19-.92.44-1.8.63-2.68s.49-1.81.73-2.68c.2-.64.35-1.22.54-1.86.39-1.32.83-2.59,1.17-3.9.2-.73.29-1.52.49-2.3s.54-1.9.93-2.83a2.83,2.83,0,0,1,2-1.56h.19A4.43,4.43,0,0,1,35.08.26Zm-.49,21.91a.89.89,0,0,0,1-1.17,4.94,4.94,0,0,0-.25-.83c-.19-.59-.39-1.17-.53-1.76s-.25-1.42-.39-2.15c0-.09,0-.19-.1-.29s-.24-.2-.39,0a4.44,4.44,0,0,0-.15.44c-.19,1.07-.63,2.15-.78,3.27a2.08,2.08,0,0,1-.14.53c-.1.3-.25.64-.35,1s0,.73.44.78,1,.15,1.52.2Z"/><path class="cls-1" d="M51.33,1.38a1.83,1.83,0,0,1,.83.63,4.42,4.42,0,0,1,1,1.86c.24,1.17.44,2.39.78,3.56.63,2.44,1.12,4.88,1.7,7.27.15.44.25.88.35,1.27a2.25,2.25,0,0,0,.34.63.66.66,0,0,0,1.12.15.92.92,0,0,0,.24-.39c.15-.39.3-.83.44-1.22a6.78,6.78,0,0,0,.34-1,1.89,1.89,0,0,0,.2-.44c.29-1.22.59-2.44.88-3.66.39-1.66.78-3.37,1.17-5,.2-.68.34-1.37.59-2.05a2.57,2.57,0,0,1,2.19-1.76A18,18,0,0,1,66.26,1,1.77,1.77,0,0,1,68,2.35a2.61,2.61,0,0,1,0,1.52c-.54,1.56-.78,3.22-1.17,4.83-.29,1-.49,2.1-.68,3.12-.34,1.37-.64,2.73-.93,4l-1.17,5.57a3.76,3.76,0,0,0-.2.73c-.53,1.66-1,3.32-1.51,5-.24.83-.44,1.71-.68,2.59s-.54,2-.78,3.07c0,0,0,.1,0,.1a3.22,3.22,0,0,1-2.39,1.95A3.62,3.62,0,0,1,56,34.71c-.49-.29-1-.54-1.47-.83a2,2,0,0,1-.83-1.22c-.29-1.12-.63-2.2-1-3.27l-1.17-3.95c-.39-1.17-.78-2.39-1.12-3.61a29.74,29.74,0,0,1-1-4.74,43.64,43.64,0,0,0-1.22-5.37c-.24-.78-.39-1.61-.63-2.44s-.59-2-.93-3a4.22,4.22,0,0,1-.15-1.76,2.9,2.9,0,0,0,0-.63,3.9,3.9,0,0,1,.34-1.47,2.18,2.18,0,0,1,.93-1.17,1.72,1.72,0,0,1,.54-.19,5,5,0,0,1,.87,0A4.41,4.41,0,0,1,51.33,1.38Z"/><path class="cls-1" d="M89.34,28.27a1.77,1.77,0,0,1,1.86,1.12,6.48,6.48,0,0,1,.39,3.71,6,6,0,0,1-.39,1.17,1.16,1.16,0,0,1-.93.63c-.68.05-1.32.05-2,.05-.39,0-.78-.05-1.22-.05-1.07.05-2.2.1-3.27.1-.78,0-1.51,0-2.24,0l-5.18.15c-1,0-2,0-3.07-.1h-.2c-.39-.29-.78-.54-1.12-.83a.81.81,0,0,1-.19-.34,5.77,5.77,0,0,1-.35-2.59c.1-1.46.15-2.88.25-4.29.1-1.91.15-3.81.24-5.71,0-.73,0-1.51.1-2.25a35.67,35.67,0,0,0,0-4.63V14c-.1-2.59-.14-5.13-.19-7.71A17.82,17.82,0,0,1,72,4.06a3.36,3.36,0,0,1,.2-1A11,11,0,0,1,73,.94a1.6,1.6,0,0,1,.88-.73A4.43,4.43,0,0,1,75.49,0c.83,0,1.65,0,2.48.1,1.08.05,2.15.1,3.22.2,1.52,0,3,.09,4.54,0a23.3,23.3,0,0,1,2.64-.1,4.87,4.87,0,0,1,1.17.24,2.74,2.74,0,0,1,.68.25A1.65,1.65,0,0,1,91.15,2a9.24,9.24,0,0,1,.1,3.81,1.41,1.41,0,0,1-.44.83,4.5,4.5,0,0,1-1.51.93,6.52,6.52,0,0,1-1.42.14h-.39a11,11,0,0,1-2.88.15,8.13,8.13,0,0,0-1.9.15c-.2,0-.44,0-.69.09a10.56,10.56,0,0,0-1.22.25.92.92,0,0,0-.83,1c0,.64,0,1.27,0,1.91v.44a1.08,1.08,0,0,0,.78,1,1.42,1.42,0,0,0,.48.05c.54,0,1.13-.05,1.66-.05h.59c1,.1,2,0,3,.05a1.91,1.91,0,0,1,1.91,1.56c.1.34.1.69.19,1a4.25,4.25,0,0,1,.1,1.12,2.11,2.11,0,0,1-.88,1.81,2.34,2.34,0,0,1-1.46.53c-.44,0-.88.1-1.32.1a.59.59,0,0,1-.29.05c-.83.1-1.66.15-2.44.19-.54.05-1.08.15-1.56.2s-.59.29-.69.68a14.92,14.92,0,0,0-.19,2.49,21.78,21.78,0,0,0-.1,3.61,10.16,10.16,0,0,0,.15,1.22A1.16,1.16,0,0,0,81,28.32c.49,0,1,0,1.46.09h1.86v.05C86,28.36,87.68,28.32,89.34,28.27Z"/></g></g></svg>