<svg xmlns="http://www.w3.org/2000/svg" viewBox="0 0 91.69 93.84"><defs><style>.cls-1{fill:#fff;}</style></defs><title>SaveNew</title><g id="Layer_2" data-name="Layer 2"><g id="Website"><path class="cls-1" d="M.39,28.71a2.22,2.22,0,0,1,.49-1.66,5.88,5.88,0,0,1,1.36-1.32,2.44,2.44,0,0,1,.35-.15,8.78,8.78,0,0,1,1.12.05,1.83,1.83,0,0,1,1.07.49,19.6,19.6,0,0,0,2,1.46,1.09,1.09,0,0,0,.25.15c.53.15,1.07.24,1.61.39.24.05.53.05.78.1a2.62,2.62,0,0,0,1.95-.44c.1-.05.15-.15.24-.29a4,4,0,0,0,.83-2.69,2.18,2.18,0,0,0-.58-1.41,3.54,3.54,0,0,0-1.17-.88A21.67,21.67,0,0,1,7.47,20.8c-1-.59-2-1.22-3-1.85a14.06,14.06,0,0,1-1.71-1.18A8,8,0,0,1,1,15.68a8.75,8.75,0,0,1-1-3.47c0-.83,0-1.66,0-2.49V9.58A12.7,12.7,0,0,1,.88,6.8c.29-.59.68-1.08,1-1.66A11.91,11.91,0,0,1,3.42,3.43,8.91,8.91,0,0,1,5.66,1.62a3.33,3.33,0,0,1,.93-.39C7.12,1.09,7.66.94,8.2.84a12.57,12.57,0,0,1,4.24,0,8.59,8.59,0,0,1,2.1.78,15.91,15.91,0,0,1,2.2,1.47,6.76,6.76,0,0,1,.88.78,2.31,2.31,0,0,0,.14.19c0,.15.1.25.15.39a2.33,2.33,0,0,1,.19,1.81A.84.84,0,0,1,18,6.7a6.77,6.77,0,0,1-.49,1A3.33,3.33,0,0,1,16.1,8.94c-.05,0-.1.05-.14.05a2.55,2.55,0,0,1-2.3.1,11.14,11.14,0,0,1-1.17-.44A4,4,0,0,0,11,8.26a13.2,13.2,0,0,0-2,.05,1.84,1.84,0,0,0-1.27.83A2.89,2.89,0,0,0,7.17,11a.58.58,0,0,0,0,.29,3.37,3.37,0,0,0,1.32,1.76c.44.2.88.44,1.37.64,1.07.43,2.19,1,3.26,1.51a20.23,20.23,0,0,1,3.18,2.24,6.08,6.08,0,0,1,.83.69,6.23,6.23,0,0,1,2.14,4c.1,1,.2,2.09.25,3.17a9.27,9.27,0,0,1-1,4.29,11.38,11.38,0,0,1-1,1.66,8.87,8.87,0,0,1-1.86,2.15,12,12,0,0,1-2.88,1.75,13.83,13.83,0,0,1-1.9.59,6.11,6.11,0,0,1-3.37-.15,13.18,13.18,0,0,1-2.34-.87c-.58-.3-1.17-.44-1.76-.69A1.86,1.86,0,0,1,3,33.88c-.1-.05-.2-.15-.3-.2a3.67,3.67,0,0,1-1.51-1.61s-.05-.09-.05-.14a4.33,4.33,0,0,1-.78-3Z"/><path class="cls-1" d="M36,.26a1.75,1.75,0,0,1,1.27.39,6,6,0,0,1,1.22,1,1.87,1.87,0,0,1,.24.39,9.26,9.26,0,0,1,.64,2.3,13.43,13.43,0,0,0,.44,1.8c.19.78.39,1.56.53,2.34a.38.38,0,0,1,0,.2,5,5,0,0,0,.39,1.9c.29,1,.54,2,.83,2.93a5.24,5.24,0,0,0,.25.83l.58,2.34c.39,1.42.83,2.83,1.22,4.25.49,1.9.93,3.85,1.42,5.76.29,1.12.63,2.19.92,3.26.2.69.39,1.32.54,2a4,4,0,0,1-.24,1.46,2.23,2.23,0,0,1-1.66,1.27,7.51,7.51,0,0,1-4.15,0,.25.25,0,0,0-.15,0,7.67,7.67,0,0,1-1.12-1.08,2.71,2.71,0,0,1-.68-1.46,1.39,1.39,0,0,0-.88-1.12c-.15,0-.29-.05-.44-.05-1.37-.05-2.73-.05-4.1-.1-.24,0-.54,0-.83,0a1,1,0,0,0-1,.44,5.19,5.19,0,0,0-.54,1.08,3,3,0,0,1-1.32,1.75,3.28,3.28,0,0,1-.58.39,2.72,2.72,0,0,1-1.42.34,11.77,11.77,0,0,1-3-.34A5.37,5.37,0,0,1,23.27,34a.85.85,0,0,1-.44-.82,4.47,4.47,0,0,1,.2-1.91c.24-.78.54-1.61.73-2.44s.39-1.66.59-2.49c.29-1.22.53-2.44.83-3.66.39-1.51.83-3,1.22-4.44.19-.92.44-1.8.63-2.68s.49-1.81.73-2.68c.2-.64.35-1.22.54-1.86.39-1.32.83-2.59,1.17-3.9.2-.73.29-1.52.49-2.3s.54-1.9.93-2.83a2.83,2.83,0,0,1,2-1.56h.19A4.43,4.43,0,0,1,35.08.26Zm-.49,21.91a.9.9,0,0,0,1-1.17,4.94,4.94,0,0,0-.25-.83c-.19-.59-.39-1.17-.53-1.76s-.25-1.42-.39-2.15c0-.09,0-.19-.1-.29s-.24-.2-.39,0a4.44,4.44,0,0,0-.15.44c-.19,1.07-.63,2.15-.78,3.27a2.6,2.6,0,0,1-.14.53c-.1.3-.25.64-.35,1s0,.73.44.78,1,.15,1.52.2Z"/><path class="cls-1" d="M51.33,1.38a1.83,1.83,0,0,1,.83.63,4.42,4.42,0,0,1,1,1.86c.24,1.17.43,2.39.78,3.56.63,2.44,1.12,4.88,1.7,7.27.15.44.25.88.35,1.27a2.25,2.25,0,0,0,.34.63.66.66,0,0,0,1.12.15,1,1,0,0,0,.24-.39c.15-.39.3-.83.44-1.22a6.78,6.78,0,0,0,.34-1,1.89,1.89,0,0,0,.2-.44c.29-1.22.59-2.44.88-3.66.39-1.66.78-3.37,1.17-5,.19-.68.34-1.37.58-2.05a2.6,2.6,0,0,1,2.2-1.76A18,18,0,0,1,66.26,1,1.77,1.77,0,0,1,68,2.35a2.61,2.61,0,0,1,0,1.52c-.54,1.56-.78,3.22-1.17,4.83-.29,1-.49,2.1-.68,3.12-.35,1.37-.64,2.73-.93,4l-1.17,5.57a3.76,3.76,0,0,0-.2.73c-.53,1.66-1,3.32-1.51,5-.24.83-.44,1.71-.68,2.59s-.54,2-.78,3.07c0,0,0,.1,0,.1a3.22,3.22,0,0,1-2.39,1.95A3.62,3.62,0,0,1,56,34.71c-.49-.29-1-.54-1.47-.83a2,2,0,0,1-.83-1.22c-.29-1.12-.63-2.2-1-3.27l-1.17-3.95c-.39-1.17-.78-2.39-1.13-3.61a29.72,29.72,0,0,1-1-4.74,43.64,43.64,0,0,0-1.22-5.37c-.25-.78-.39-1.61-.64-2.44s-.58-2-.92-3a4.22,4.22,0,0,1-.15-1.76,2.9,2.9,0,0,0,0-.63,3.9,3.9,0,0,1,.34-1.47,2.18,2.18,0,0,1,.93-1.17,1.66,1.66,0,0,1,.53-.19,5.13,5.13,0,0,1,.88,0A4.42,4.42,0,0,1,51.33,1.38Z"/><path class="cls-1" d="M89.34,28.27a1.77,1.77,0,0,1,1.86,1.12,6.57,6.57,0,0,1,.39,3.71,6,6,0,0,1-.39,1.17,1.16,1.16,0,0,1-.93.63c-.68.05-1.32.05-2,.05-.39,0-.78-.05-1.22-.05-1.07.05-2.2.1-3.27.1-.78,0-1.51,0-2.24,0l-5.18.15c-1,0-2,0-3.07-.1h-.2c-.39-.29-.78-.54-1.12-.83a.81.81,0,0,1-.19-.34,5.77,5.77,0,0,1-.35-2.59c.1-1.46.15-2.88.25-4.29.1-1.91.15-3.81.24-5.71,0-.73,0-1.51.1-2.25a35.67,35.67,0,0,0,0-4.63V14c-.1-2.59-.14-5.13-.19-7.71A17.82,17.82,0,0,1,72,4.06a3.36,3.36,0,0,1,.2-1A11,11,0,0,1,73,.94a1.57,1.57,0,0,1,.88-.73A4.43,4.43,0,0,1,75.49,0c.82,0,1.65,0,2.48.1,1.08.05,2.15.1,3.22.2,1.52,0,3,.09,4.54,0a23.3,23.3,0,0,1,2.64-.1,4.87,4.87,0,0,1,1.17.24,2.74,2.74,0,0,1,.68.25A1.65,1.65,0,0,1,91.15,2a9.24,9.24,0,0,1,.1,3.81,1.41,1.41,0,0,1-.44.83,4.45,4.45,0,0,1-1.52.93,6.36,6.36,0,0,1-1.41.14h-.39a11,11,0,0,1-2.88.15,8.13,8.13,0,0,0-1.9.15c-.2,0-.44,0-.69.09a10.56,10.56,0,0,0-1.22.25.92.92,0,0,0-.83,1c0,.64,0,1.27,0,1.91v.44a1.08,1.08,0,0,0,.78,1,1.42,1.42,0,0,0,.48.05c.54,0,1.13-.05,1.66-.05h.59c1,.1,2,0,3,.05a1.91,1.91,0,0,1,1.91,1.56c.1.34.1.69.19,1a4.25,4.25,0,0,1,.1,1.12,2.11,2.11,0,0,1-.88,1.81,2.34,2.34,0,0,1-1.46.53c-.44,0-.88.1-1.32.1a.59.59,0,0,1-.29.05c-.83.1-1.66.15-2.44.19-.54.05-1.08.15-1.56.2s-.59.29-.69.68a14.92,14.92,0,0,0-.19,2.49,21.78,21.78,0,0,0-.1,3.61,10.16,10.16,0,0,0,.15,1.22A1.16,1.16,0,0,0,81,28.32c.49,0,1,0,1.46.09h1.86v.05C86,28.36,87.68,28.32,89.34,28.27Z"/><path class="cls-1" d="M6.83,90.87a3.55,3.55,0,0,1-.49,1.71.66.66,0,0,1-.48.39c-.49.1-1,.19-1.57.34A7.37,7.37,0,0,1,2,93.21,1.77,1.77,0,0,1,.44,91.46c0-1.86-.1-3.66-.15-5.52,0-.73,0-1.41-.1-2.15,0-.34,0-.68,0-1V74.47c0-2.83-.1-5.7-.1-8.53,0-.69.1-1.32.14-2s.15-1.31.2-2a6,6,0,0,1,.54-1.9,2,2,0,0,1,1.56-1.22.7.7,0,0,1,.34,0,7.15,7.15,0,0,1,2.83.73A2.8,2.8,0,0,1,7,60.91C7.56,62,8.15,63.1,8.69,64.18c.48.93.92,1.9,1.36,2.83l1,2c.29.58.58,1.17.88,1.71.58,1.22,1.21,2.39,1.85,3.61.29.58.63,1.17,1,1.75a.64.64,0,0,0,.34.3.47.47,0,0,0,.63-.3,1.48,1.48,0,0,0,.24-1c0-1.71-.14-3.42-.19-5.12-.05-1-.05-2-.1-3-.05-1.32-.09-2.64-.14-4,0-.49,0-.93.09-1.42a5.77,5.77,0,0,1,.88-2.1A1.51,1.51,0,0,1,18,58.76a.72.72,0,0,0,.34,0,4.23,4.23,0,0,1,2.78.69,2.43,2.43,0,0,1,1,2.05c0,2.63.1,5.27.1,7.9a7.74,7.74,0,0,0,.1,1.07c.05,1.81.1,3.62.2,5.37s.14,3.37.24,5a13.19,13.19,0,0,0,.05,1.41c.05,2,.1,4.15.14,6.2,0,.63.05,1.22.05,1.81a8.38,8.38,0,0,1-.34,2.24c-.1.29-.29.39-.54.54a4.75,4.75,0,0,1-3.46.1,2.41,2.41,0,0,1-1-.69c-.39-.44-.79-.83-1.18-1.27a29.21,29.21,0,0,1-1.85-2.34c-.49-.78-1-1.56-1.46-2.34-.59-1.07-1.32-2.1-2-3.17l-3.26-5a.73.73,0,0,0-.64-.39c-.29,0-.44.15-.49.44a1.94,1.94,0,0,0-.05.54c0,2,.05,4,.05,6h.1Z"/><path class="cls-1" d="M45.33,86.82a1.76,1.76,0,0,1,1.85,1.12,6.48,6.48,0,0,1,.4,3.71,5.4,5.4,0,0,1-.4,1.17,1.14,1.14,0,0,1-.92.64c-.69.05-1.32.05-2,.05-.39,0-.78-.05-1.22-.05-1.08.05-2.2.09-3.27.09-.78,0-1.52,0-2.25,0l-5.17.15c-1,0-2.05,0-3.07-.1h-.2c-.39-.29-.78-.53-1.12-.83a.72.72,0,0,1-.2-.34,5.74,5.74,0,0,1-.34-2.58c.1-1.47.15-2.88.25-4.3.09-1.9.14-3.8.24-5.71.05-.73,0-1.51.1-2.24A37.7,37.7,0,0,0,28,73v-.39c-.1-2.58-.15-5.12-.2-7.71a17.73,17.73,0,0,1,.2-2.24,3.7,3.7,0,0,1,.19-1A12.24,12.24,0,0,1,29,59.49a1.68,1.68,0,0,1,.88-.73,4.71,4.71,0,0,1,1.61-.19c.83,0,1.66,0,2.49.09,1.07.05,2.15.1,3.22.2,1.51,0,3,.1,4.54,0a23.21,23.21,0,0,1,2.63-.1,4.87,4.87,0,0,1,1.18.25,2.49,2.49,0,0,1,.68.24,1.65,1.65,0,0,1,.93,1.27,9,9,0,0,1,.09,3.8,1.33,1.33,0,0,1-.44.83,4.17,4.17,0,0,1-1.51.93,6.48,6.48,0,0,1-1.41.15h-.39a11.51,11.51,0,0,1-2.88.14,8.21,8.21,0,0,0-1.91.15c-.19,0-.44,0-.68.1a10.51,10.51,0,0,0-1.22.24.92.92,0,0,0-.83,1c-.05.63-.05,1.27-.05,1.9v.44a1.12,1.12,0,0,0,.78,1,1.51,1.51,0,0,0,.49,0c.54,0,1.12,0,1.66,0h.59c1,.09,2,0,3,0a1.88,1.88,0,0,1,1.9,1.56c.1.34.1.68.2,1a4.25,4.25,0,0,1,.1,1.12,2.14,2.14,0,0,1-.88,1.81,2.38,2.38,0,0,1-1.47.54c-.43,0-.87.09-1.31.09a.63.63,0,0,1-.3.05c-.82.1-1.65.15-2.44.2-.53.05-1.07.14-1.56.19s-.58.3-.68.69A13.89,13.89,0,0,0,35.82,81a21.9,21.9,0,0,0-.1,3.62c0,.39.1.83.14,1.22A1.17,1.17,0,0,0,37,86.87c.48,0,1,0,1.46.1H40.3v0C42,86.92,43.67,86.87,45.33,86.82Z"/><path class="cls-1" d="M77.49,79.6c0,1,0,2.05,0,3.07,0,1.66-.1,3.37-.1,5.13a8.67,8.67,0,0,1-.93,3.46,6.34,6.34,0,0,1-1.17,1.61c-.1,0-.15.15-.19.15a5.69,5.69,0,0,1-1.76.44,7.68,7.68,0,0,1-2.78-.59,2.62,2.62,0,0,1-1.32-1.22c-.49-.78-.93-1.56-1.37-2.39,0-.05,0-.15-.09-.24-.64-1.42-1.27-2.88-1.91-4.3-.24-.58-.53-1.12-.78-1.66a.48.48,0,0,0-.44-.19.74.74,0,0,0-.87.58c-.44,1.13-.93,2.3-1.37,3.42s-.78,1.9-1.17,2.83a6.2,6.2,0,0,1-.73,1.61c-.44.54-.83,1.07-1.27,1.61a1.9,1.9,0,0,1-.69.39,4.75,4.75,0,0,1-2.14.49,4.29,4.29,0,0,1-3.27-2,4.41,4.41,0,0,1-.73-2.54c0-3.76,0-7.56-.1-11.32,0-1.86,0-3.71,0-5.56s-.1-4-.1-5.91a28.89,28.89,0,0,1,.15-2.93,8.87,8.87,0,0,1,.73-3,2.23,2.23,0,0,1,1.07-1,4.29,4.29,0,0,1,2.69-.1,2.68,2.68,0,0,1,1.36.44,1.79,1.79,0,0,1,1,1.66c0,1.22-.05,2.49-.05,3.71,0,3.08.05,6.15.1,9.18a.84.84,0,0,0,.1.48c.24.39.63.49,1.07.1a4.33,4.33,0,0,0,1.07-1.41c.25-.64.49-1.27.78-1.91a3.05,3.05,0,0,1,1.66-1.56,2.22,2.22,0,0,1,2.39.49,4,4,0,0,1,.93,1.17,7.5,7.5,0,0,1,1.27,2,3.84,3.84,0,0,0,.39.63c.2.3.39.3.63,0a1,1,0,0,0,.3-.73v-2.1c0-2.49,0-4.93,0-7.41,0-.93,0-1.91.09-2.83v-.2a3.21,3.21,0,0,1,1.66-2.2,4.11,4.11,0,0,1,2.59-.39,3.12,3.12,0,0,1,1.85,1,5.65,5.65,0,0,1,1.22,2.29,11.6,11.6,0,0,1,.2,2.93c0,2.34,0,4.73.1,7.27Z"/></g></g></svg>