<svg xmlns="http://www.w3.org/2000/svg" viewBox="0 0 177.29 51.86"><defs><style>.cls-1{fill:#231f20;}</style></defs><title>Share</title><g id="Layer_2" data-name="Layer 2"><g id="Website"><path class="cls-1" d="M18.42,1a11.47,11.47,0,0,1,4.66,2.05,14.72,14.72,0,0,1,2.82,2.4,2.83,2.83,0,0,1,.64,1.19,8.22,8.22,0,0,1,0,2.62A3.44,3.44,0,0,1,25.76,11a4.92,4.92,0,0,1-2.19,1.83A4.13,4.13,0,0,1,21,13a2.77,2.77,0,0,1-1.06-.64,7.09,7.09,0,0,0-3.46-1.2,20.89,20.89,0,0,0-3,0,2.88,2.88,0,0,0-2.05,1,8.14,8.14,0,0,0-1,1.2,2.16,2.16,0,0,0-.29,1,3.68,3.68,0,0,0,.36,2.11,3.58,3.58,0,0,0,1.2,1.49,28.09,28.09,0,0,0,4.58,2.89c.78.42,1.63.71,2.4,1.06a21.84,21.84,0,0,1,4.45,2.68c.7.56,1.27,1.2,2,1.76a9.45,9.45,0,0,1,2.69,3.75,15.58,15.58,0,0,1,1,6.49,14.89,14.89,0,0,1-2.82,8,16.94,16.94,0,0,1-2.75,3.18,18.52,18.52,0,0,1-4.59,2.75,20.73,20.73,0,0,1-2.26.56,14.52,14.52,0,0,1-4.65.08C10.8,51,9.81,50.75,9,50.54a15.48,15.48,0,0,1-4.23-2c-.28-.21-.64-.42-.92-.63A9.3,9.3,0,0,1,.64,44.61a5,5,0,0,1-.36-4.16A2.53,2.53,0,0,1,1.06,39c.56-.57,1.2-1.13,1.83-1.7a2.05,2.05,0,0,1,2-.42,4.59,4.59,0,0,1,1.91.85c.77.56,1.48,1.2,2.25,1.69A13.44,13.44,0,0,0,13,41a4.71,4.71,0,0,0,3.1-.42,4.5,4.5,0,0,0,2.54-2.19,1.6,1.6,0,0,0,.21-.77,3.87,3.87,0,0,0-.21-2.19,4.21,4.21,0,0,0-1.2-1.55,22,22,0,0,0-5.08-3c-1.62-.7-3.17-1.48-4.73-2.33-.77-.49-1.55-1.13-2.26-1.69s-1.34-1.2-2-1.77a8.63,8.63,0,0,1-1.91-2.82,10.1,10.1,0,0,1-.77-2.33A19,19,0,0,1,.28,17,15.61,15.61,0,0,1,1.62,9.89,21.31,21.31,0,0,1,4.24,5.8,14.19,14.19,0,0,1,8.12,2.55a11.44,11.44,0,0,1,1.34-.7,9.71,9.71,0,0,1,4-1.13C14.19.65,14.89.65,15.6.58A9.49,9.49,0,0,1,18.42,1Z"/><path class="cls-1" d="M65.35,36.07c.07,4.17.14,8.26.21,12.35a4,4,0,0,1-.56,2,.89.89,0,0,1-.92.56,29.33,29.33,0,0,1-6.14-.14,1.79,1.79,0,0,1-1.55-1.41A7.54,7.54,0,0,1,56,47.22c-.21-3.81-.28-7.69-.35-11.5-.07-1.41-.07-2.89-.07-4.3a4.11,4.11,0,0,0-.49-2.26,1.68,1.68,0,0,0-1.63-1.06c-1.76.07-3.45.07-5.22.14a16.25,16.25,0,0,0-2.54.49c-.21,0-.42.22-.56.36a2.86,2.86,0,0,0-.78,2c0,1.34.07,2.76.07,4.1,0,2.89-.07,5.78-.07,8.68,0,1.41-.07,2.82-.14,4.16a7.37,7.37,0,0,1-.71,2.54,1.25,1.25,0,0,1-1,.78c-1.34.07-2.68.28-4,.28a3.85,3.85,0,0,1-2.61-.85,2.52,2.52,0,0,1-1-2c.07-3,.21-5.93.21-9s0-6.14-.07-9.24c-.07-2.19-.14-4.45-.14-6.64,0-3.81,0-7.69.07-11.57,0-2.26.07-4.52.14-6.77a9.11,9.11,0,0,1,.71-3.32A2.29,2.29,0,0,1,37.47.79,12.32,12.32,0,0,1,40.23.51h.28a5,5,0,0,0,2.05.21,3.74,3.74,0,0,1,1.55.56,1.25,1.25,0,0,1,.56,1.06c0,2.89.07,5.79,0,8.68-.07,2-.21,4-.21,5.86a1.71,1.71,0,0,0,1.62,1.76,37,37,0,0,0,5.58.07A13.23,13.23,0,0,0,54,18.43,1.47,1.47,0,0,0,55.4,17V4.81l.21-2.54A2.11,2.11,0,0,1,57.16.51a14.93,14.93,0,0,1,4-.5,3.43,3.43,0,0,1,3.1,1.91,3.56,3.56,0,0,1,.42,1.69c0,2.26.08,4.45.15,6.63.07,4,.21,7.91.28,11.93.07,1.2.07,2.47.14,3.74h-.07Z"/><path class="cls-1" d="M89.41.51a2.55,2.55,0,0,1,1.84.56A8.69,8.69,0,0,1,93,2.55a2.36,2.36,0,0,1,.36.57,13.54,13.54,0,0,1,.91,3.31A19.79,19.79,0,0,0,94.92,9c.28,1.13.56,2.26.78,3.39a.53.53,0,0,1,.07.28,7.2,7.2,0,0,0,.56,2.76c.42,1.41.78,2.82,1.2,4.23a7.76,7.76,0,0,0,.35,1.2c.29,1.13.57,2.26.85,3.39.56,2,1.2,4.09,1.76,6.14.71,2.75,1.35,5.57,2.05,8.33.42,1.62.92,3.17,1.34,4.72.28,1,.57,1.91.78,2.9a5.57,5.57,0,0,1-.35,2.11,3.21,3.21,0,0,1-2.4,1.84,10.93,10.93,0,0,1-6,.07.35.35,0,0,0-.21-.07,11.48,11.48,0,0,1-1.63-1.55,4.05,4.05,0,0,1-1-2.12A2,2,0,0,0,91.81,45c-.21,0-.42-.07-.63-.07-2-.08-4-.08-5.93-.15-.35,0-.77-.07-1.2-.07a1.49,1.49,0,0,0-1.48.64,8,8,0,0,0-.78,1.55,4.35,4.35,0,0,1-1.9,2.54,6.64,6.64,0,0,1-.85.57,4,4,0,0,1-2.05.49,17.62,17.62,0,0,1-4.3-.49A8.45,8.45,0,0,1,71,49.34a1.24,1.24,0,0,1-.64-1.2,6.17,6.17,0,0,1,.28-2.75c.36-1.13.78-2.33,1.06-3.53s.57-2.4.85-3.6c.42-1.76.77-3.53,1.2-5.29.56-2.19,1.2-4.31,1.76-6.42.28-1.34.64-2.62.92-3.88s.71-2.62,1.06-3.89c.28-.91.49-1.76.77-2.68.57-1.9,1.2-3.74,1.7-5.64.28-1.06.42-2.19.7-3.32.43-1.34.78-2.75,1.34-4.09A4.1,4.1,0,0,1,85,.79h.28A6.25,6.25,0,0,1,88.07.51Zm-.7,31.68a1.29,1.29,0,0,0,1.41-1.69,7.76,7.76,0,0,0-.35-1.2c-.28-.85-.57-1.7-.78-2.54-.21-1.06-.35-2.05-.56-3.11-.07-.14-.07-.28-.14-.42s-.36-.28-.57,0a6.61,6.61,0,0,0-.21.63c-.28,1.56-.92,3.11-1.13,4.73a3.11,3.11,0,0,1-.21.78c-.14.42-.35.92-.5,1.41-.21.71-.07,1.06.64,1.13s1.48.21,2.19.28Z"/><path class="cls-1" d="M120.33,47.79a4.15,4.15,0,0,1-1.35,3,3.46,3.46,0,0,1-2.32,1,10.73,10.73,0,0,1-2.12,0,4.39,4.39,0,0,1-3.25-1.48,3.18,3.18,0,0,1-.85-2c-.07-1.76-.07-3.53-.14-5.29-.07-2.82-.14-5.72-.21-8.54-.14-3.6-.21-7.13-.35-10.73-.07-2.68-.21-5.36-.28-8,0-1.84,0-3.67.07-5.51.14-1.62.35-3.17.49-4.72V5.23a7.14,7.14,0,0,1,1.7-2.82,2.12,2.12,0,0,1,1.76-.63c1,.07,1.91-.07,2.82-.07a8.28,8.28,0,0,1,1.41,0c1.91,0,3.74.07,5.58.07s3.95-.07,5.86-.07a8,8,0,0,1,2.25.35A10.7,10.7,0,0,1,137.19,7,11.55,11.55,0,0,1,138,8.62a25.36,25.36,0,0,1,1.83,9.46v3.74a21.08,21.08,0,0,1-1.27,5.93,12.22,12.22,0,0,1-1.76,3.45,3.69,3.69,0,0,1-.57.64,2.62,2.62,0,0,0-.56,3.46c.35.7.63,1.41,1,2,.42,1,.84,1.91,1.27,2.9a.53.53,0,0,0,.14.35,24,24,0,0,0,1.55,3.67,6.85,6.85,0,0,1,.5,1.76,21.1,21.1,0,0,1,.28,2.19,2.79,2.79,0,0,1-1.13,2.33,2.23,2.23,0,0,1-1.84.49c-.35,0-.77.08-1.13.08a18.49,18.49,0,0,1-2,0,9.25,9.25,0,0,1-3-.85,4.16,4.16,0,0,1-1.62-1.7,16.17,16.17,0,0,0-.85-2c-.42-.78-.91-1.48-1.41-2.26a24.9,24.9,0,0,1-1.76-3.32,6.48,6.48,0,0,1-.35-.7,9.44,9.44,0,0,1-.64-1.56,1.66,1.66,0,0,0-1.9-1.34,8.69,8.69,0,0,1-1.35,0,.83.83,0,0,0-.84.64,6.58,6.58,0,0,0-.36,2.05c0,1.27.08,2.54.08,3.81ZM120.4,20c-.07,1.63-.07,3.25-.15,4.94v1.27A1.71,1.71,0,0,0,122.09,28h1.41A1.19,1.19,0,0,0,124,28a16,16,0,0,0,2.4-.85,5.16,5.16,0,0,0,1.7-1.27,6.33,6.33,0,0,0,1.34-2.75,26.72,26.72,0,0,0,.14-4.73,13.75,13.75,0,0,0-.14-1.69,10,10,0,0,0-.64-2.12,8.23,8.23,0,0,0-1.13-1.91,4,4,0,0,0-3.17-1.48h-1.34a3.06,3.06,0,0,0-1.91.78,2.66,2.66,0,0,0-.91,2v6Z"/><path class="cls-1" d="M173.89,41a2.56,2.56,0,0,1,2.68,1.63,9.32,9.32,0,0,1,.57,5.36,8.63,8.63,0,0,1-.57,1.69,1.65,1.65,0,0,1-1.34.92c-1,.07-1.91.07-2.89.07-.57,0-1.13-.07-1.77-.07-1.55.07-3.17.14-4.73.14-1.13.07-2.18-.07-3.24,0l-7.48.21c-1.49,0-3-.07-4.45-.14h-.28c-.57-.42-1.13-.77-1.62-1.2a1.05,1.05,0,0,1-.29-.49,8.38,8.38,0,0,1-.49-3.74c.14-2.12.21-4.16.35-6.21.14-2.75.21-5.51.35-8.26.08-1.06,0-2.19.15-3.24a53.52,53.52,0,0,0-.07-6.71v-.56c-.15-3.74-.22-7.41-.29-11.15A24.8,24.8,0,0,1,148.77,6a5,5,0,0,1,.28-1.41,16.12,16.12,0,0,1,1.2-3.11A2.39,2.39,0,0,1,151.52.43a6.63,6.63,0,0,1,2.33-.28c1.2.07,2.4.07,3.6.14,1.55.07,3.1.14,4.65.29,2.19.07,4.38.14,6.57,0a32.36,32.36,0,0,1,3.81-.15,7.29,7.29,0,0,1,1.69.36,4.13,4.13,0,0,1,1,.35A2.39,2.39,0,0,1,176.5,3a13.25,13.25,0,0,1,.14,5.5,2,2,0,0,1-.63,1.2A6.37,6.37,0,0,1,173.82,11a9.69,9.69,0,0,1-2,.21h-.56a16.07,16.07,0,0,1-4.17.21,11.65,11.65,0,0,0-2.75.22c-.28.07-.63.07-1,.14a15.65,15.65,0,0,0-1.76.35,1.32,1.32,0,0,0-1.2,1.41c-.07.92-.07,1.84-.07,2.75V17a1.59,1.59,0,0,0,1.13,1.41,2.16,2.16,0,0,0,.7.07c.78,0,1.63-.07,2.4-.07h.85c1.48.14,3,0,4.38.07a2.75,2.75,0,0,1,2.75,2.26c.14.49.14,1,.28,1.48a6.38,6.38,0,0,1,.14,1.62,3.07,3.07,0,0,1-1.27,2.62,3.41,3.41,0,0,1-2.12.77c-.63,0-1.27.14-1.9.14a.91.91,0,0,1-.43.07c-1.2.14-2.4.21-3.52.29-.78.07-1.56.21-2.26.28s-.85.42-1,1a20.72,20.72,0,0,0-.28,3.6,32.5,32.5,0,0,0-.14,5.22,15.08,15.08,0,0,0,.21,1.76,1.67,1.67,0,0,0,1.62,1.55c.71.07,1.41.07,2.12.15h2.68v.07C169,41.15,171.49,41.08,173.89,41Z"/></g></g></svg>